<svg width="1920" height="1080" viewBox="0 0 1920 1080" fill="none" xmlns="http://www.w3.org/2000/svg">
<g filter="url(#filter0_n_721_1205)">
<g clip-path="url(#clip0_721_1205)">
<rect width="1920" height="1080" fill="#0D5331"/>
<g opacity="0.05">
<path d="M69.9856 25.1535V32.9898H78.4579V84.3024H88.2616V25.1535H69.9856Z" fill="white"/>
<path d="M93.684 25.1535V32.9898H102.156V67.3488H111.96V25.1535H93.684Z" fill="white"/>
<path d="M117.382 25.1535V32.9898H125.855V67.3488H135.658V25.1535H117.382Z" fill="white"/>
<path d="M181.808 50.531H174.909V42.6344H165.65V50.531H154.273L172.791 25.1535H162.503L142.533 51.9174V58.4878H165.348V67.3488H174.909V58.4878H181.808V50.531Z" fill="white"/>
<path d="M181.267 25.1535V32.9898H189.74V67.3488H199.543V25.1535H181.267Z" fill="white"/>
<path d="M235.89 45.1661C239.036 43.2372 240.852 40.2835 240.852 36.486C240.852 29.0716 234.195 24.4301 224.452 24.4301C214.83 24.4301 208.173 29.0716 208.173 36.486C208.173 40.2835 209.928 43.2372 213.075 45.1661C209.02 47.2156 206.66 50.5913 206.66 55.1122C206.66 63.069 213.741 68.0722 224.452 68.0722C235.224 68.0722 242.365 63.069 242.365 55.1122C242.365 50.5913 240.005 47.2156 235.89 45.1661ZM224.452 31.6034C228.446 31.6034 231.109 33.5926 231.109 36.9079C231.109 40.1027 228.507 42.0919 224.452 42.0919C220.458 42.0919 217.916 40.1027 217.916 36.9079C217.916 33.5926 220.518 31.6034 224.452 31.6034ZM224.452 60.899C219.611 60.899 216.585 58.5481 216.585 54.8108C216.585 51.0735 219.611 48.7829 224.452 48.7829C229.354 48.7829 232.44 51.0735 232.44 54.8108C232.44 58.5481 229.354 60.899 224.452 60.899Z" fill="white"/>
<path d="M49.3899 -8H265.61V8.32558H49.3899V-8Z" fill="white"/>
<path d="M49.3899 83.6744H265.61V100H49.3899V83.6744Z" fill="white"/>
<path d="M265.61 100V-8H282V100H265.61Z" fill="white"/>
<path d="M33 100V-8H49.3899V100H33Z" fill="white"/>
<path d="M377.986 25.1535V32.9898H386.458V84.3024H396.262V25.1535H377.986Z" fill="white"/>
<path d="M401.684 25.1535V32.9898H410.156V67.3488H419.96V25.1535H401.684Z" fill="white"/>
<path d="M425.382 25.1535V32.9898H433.855V67.3488H443.658V25.1535H425.382Z" fill="white"/>
<path d="M489.808 50.531H482.909V42.6344H473.65V50.531H462.273L480.791 25.1535H470.503L450.533 51.9174V58.4878H473.348V67.3488H482.909V58.4878H489.808V50.531Z" fill="white"/>
<path d="M489.267 25.1535V32.9898H497.74V67.3488H507.543V25.1535H489.267Z" fill="white"/>
<path d="M543.89 45.1661C547.036 43.2372 548.852 40.2835 548.852 36.486C548.852 29.0716 542.195 24.4301 532.452 24.4301C522.83 24.4301 516.173 29.0716 516.173 36.486C516.173 40.2835 517.928 43.2372 521.075 45.1661C517.02 47.2156 514.66 50.5913 514.66 55.1122C514.66 63.069 521.741 68.0722 532.452 68.0722C543.224 68.0722 550.365 63.069 550.365 55.1122C550.365 50.5913 548.005 47.2156 543.89 45.1661ZM532.452 31.6034C536.446 31.6034 539.109 33.5926 539.109 36.9079C539.109 40.1027 536.507 42.0919 532.452 42.0919C528.458 42.0919 525.916 40.1027 525.916 36.9079C525.916 33.5926 528.518 31.6034 532.452 31.6034ZM532.452 60.899C527.611 60.899 524.585 58.5481 524.585 54.8108C524.585 51.0735 527.611 48.7829 532.452 48.7829C537.354 48.7829 540.44 51.0735 540.44 54.8108C540.44 58.5481 537.354 60.899 532.452 60.899Z" fill="white"/>
<path d="M357.39 -8H573.61V8.32558H357.39V-8Z" fill="white"/>
<path d="M357.39 83.6744H573.61V100H357.39V83.6744Z" fill="white"/>
<path d="M573.61 100V-8H590V100H573.61Z" fill="white"/>
<path d="M341 100V-8H357.39V100H341Z" fill="white"/>
<path d="M685.986 25.1535V32.9898H694.458V84.3024H704.262V25.1535H685.986Z" fill="white"/>
<path d="M709.684 25.1535V32.9898H718.156V67.3488H727.96V25.1535H709.684Z" fill="white"/>
<path d="M733.382 25.1535V32.9898H741.855V67.3488H751.658V25.1535H733.382Z" fill="white"/>
<path d="M797.808 50.531H790.909V42.6344H781.65V50.531H770.273L788.791 25.1535H778.503L758.533 51.9174V58.4878H781.348V67.3488H790.909V58.4878H797.808V50.531Z" fill="white"/>
<path d="M797.267 25.1535V32.9898H805.74V67.3488H815.543V25.1535H797.267Z" fill="white"/>
<path d="M851.89 45.1661C855.036 43.2372 856.852 40.2835 856.852 36.486C856.852 29.0716 850.195 24.4301 840.452 24.4301C830.83 24.4301 824.173 29.0716 824.173 36.486C824.173 40.2835 825.928 43.2372 829.075 45.1661C825.02 47.2156 822.66 50.5913 822.66 55.1122C822.66 63.069 829.741 68.0722 840.452 68.0722C851.224 68.0722 858.365 63.069 858.365 55.1122C858.365 50.5913 856.005 47.2156 851.89 45.1661ZM840.452 31.6034C844.446 31.6034 847.109 33.5926 847.109 36.9079C847.109 40.1027 844.507 42.0919 840.452 42.0919C836.458 42.0919 833.916 40.1027 833.916 36.9079C833.916 33.5926 836.518 31.6034 840.452 31.6034ZM840.452 60.899C835.611 60.899 832.585 58.5481 832.585 54.8108C832.585 51.0735 835.611 48.7829 840.452 48.7829C845.354 48.7829 848.44 51.0735 848.44 54.8108C848.44 58.5481 845.354 60.899 840.452 60.899Z" fill="white"/>
<path d="M665.39 -8H881.61V8.32558H665.39V-8Z" fill="white"/>
<path d="M665.39 83.6744H881.61V100H665.39V83.6744Z" fill="white"/>
<path d="M881.61 100V-8H898V100H881.61Z" fill="white"/>
<path d="M649 100V-8H665.39V100H649Z" fill="white"/>
<path d="M993.986 25.1535V32.9898H1002.46V84.3024H1012.26V25.1535H993.986Z" fill="white"/>
<path d="M1017.68 25.1535V32.9898H1026.16V67.3488H1035.96V25.1535H1017.68Z" fill="white"/>
<path d="M1041.38 25.1535V32.9898H1049.85V67.3488H1059.66V25.1535H1041.38Z" fill="white"/>
<path d="M1105.81 50.531H1098.91V42.6344H1089.65V50.531H1078.27L1096.79 25.1535H1086.5L1066.53 51.9174V58.4878H1089.35V67.3488H1098.91V58.4878H1105.81V50.531Z" fill="white"/>
<path d="M1105.27 25.1535V32.9898H1113.74V67.3488H1123.54V25.1535H1105.27Z" fill="white"/>
<path d="M1159.89 45.1661C1163.04 43.2372 1164.85 40.2835 1164.85 36.486C1164.85 29.0716 1158.2 24.4301 1148.45 24.4301C1138.83 24.4301 1132.17 29.0716 1132.17 36.486C1132.17 40.2835 1133.93 43.2372 1137.07 45.1661C1133.02 47.2156 1130.66 50.5913 1130.66 55.1122C1130.66 63.069 1137.74 68.0722 1148.45 68.0722C1159.22 68.0722 1166.36 63.069 1166.36 55.1122C1166.36 50.5913 1164 47.2156 1159.89 45.1661ZM1148.45 31.6034C1152.45 31.6034 1155.11 33.5926 1155.11 36.9079C1155.11 40.1027 1152.51 42.0919 1148.45 42.0919C1144.46 42.0919 1141.92 40.1027 1141.92 36.9079C1141.92 33.5926 1144.52 31.6034 1148.45 31.6034ZM1148.45 60.899C1143.61 60.899 1140.58 58.5481 1140.58 54.8108C1140.58 51.0735 1143.61 48.7829 1148.45 48.7829C1153.35 48.7829 1156.44 51.0735 1156.44 54.8108C1156.44 58.5481 1153.35 60.899 1148.45 60.899Z" fill="white"/>
<path d="M973.39 -8H1189.61V8.32558H973.39V-8Z" fill="white"/>
<path d="M973.39 83.6744H1189.61V100H973.39V83.6744Z" fill="white"/>
<path d="M1189.61 100V-8H1206V100H1189.61Z" fill="white"/>
<path d="M957 100V-8H973.39V100H957Z" fill="white"/>
<path d="M1301.99 25.1535V32.9898H1310.46V84.3024H1320.26V25.1535H1301.99Z" fill="white"/>
<path d="M1325.68 25.1535V32.9898H1334.16V67.3488H1343.96V25.1535H1325.68Z" fill="white"/>
<path d="M1349.38 25.1535V32.9898H1357.85V67.3488H1367.66V25.1535H1349.38Z" fill="white"/>
<path d="M1413.81 50.531H1406.91V42.6344H1397.65V50.531H1386.27L1404.79 25.1535H1394.5L1374.53 51.9174V58.4878H1397.35V67.3488H1406.91V58.4878H1413.81V50.531Z" fill="white"/>
<path d="M1413.27 25.1535V32.9898H1421.74V67.3488H1431.54V25.1535H1413.27Z" fill="white"/>
<path d="M1467.89 45.1661C1471.04 43.2372 1472.85 40.2835 1472.85 36.486C1472.85 29.0716 1466.2 24.4301 1456.45 24.4301C1446.83 24.4301 1440.17 29.0716 1440.17 36.486C1440.17 40.2835 1441.93 43.2372 1445.07 45.1661C1441.02 47.2156 1438.66 50.5913 1438.66 55.1122C1438.66 63.069 1445.74 68.0722 1456.45 68.0722C1467.22 68.0722 1474.36 63.069 1474.36 55.1122C1474.36 50.5913 1472 47.2156 1467.89 45.1661ZM1456.45 31.6034C1460.45 31.6034 1463.11 33.5926 1463.11 36.9079C1463.11 40.1027 1460.51 42.0919 1456.45 42.0919C1452.46 42.0919 1449.92 40.1027 1449.92 36.9079C1449.92 33.5926 1452.52 31.6034 1456.45 31.6034ZM1456.45 60.899C1451.61 60.899 1448.58 58.5481 1448.58 54.8108C1448.58 51.0735 1451.61 48.7829 1456.45 48.7829C1461.35 48.7829 1464.44 51.0735 1464.44 54.8108C1464.44 58.5481 1461.35 60.899 1456.45 60.899Z" fill="white"/>
<path d="M1281.39 -8H1497.61V8.32558H1281.39V-8Z" fill="white"/>
<path d="M1281.39 83.6744H1497.61V100H1281.39V83.6744Z" fill="white"/>
<path d="M1497.61 100V-8H1514V100H1497.61Z" fill="white"/>
<path d="M1265 100V-8H1281.39V100H1265Z" fill="white"/>
<path d="M1609.99 25.1535V32.9898H1618.46V84.3024H1628.26V25.1535H1609.99Z" fill="white"/>
<path d="M1633.68 25.1535V32.9898H1642.16V67.3488H1651.96V25.1535H1633.68Z" fill="white"/>
<path d="M1657.38 25.1535V32.9898H1665.85V67.3488H1675.66V25.1535H1657.38Z" fill="white"/>
<path d="M1721.81 50.531H1714.91V42.6344H1705.65V50.531H1694.27L1712.79 25.1535H1702.5L1682.53 51.9174V58.4878H1705.35V67.3488H1714.91V58.4878H1721.81V50.531Z" fill="white"/>
<path d="M1721.27 25.1535V32.9898H1729.74V67.3488H1739.54V25.1535H1721.27Z" fill="white"/>
<path d="M1775.89 45.1661C1779.04 43.2372 1780.85 40.2835 1780.85 36.486C1780.85 29.0716 1774.2 24.4301 1764.45 24.4301C1754.83 24.4301 1748.17 29.0716 1748.17 36.486C1748.17 40.2835 1749.93 43.2372 1753.07 45.1661C1749.02 47.2156 1746.66 50.5913 1746.66 55.1122C1746.66 63.069 1753.74 68.0722 1764.45 68.0722C1775.22 68.0722 1782.36 63.069 1782.36 55.1122C1782.36 50.5913 1780 47.2156 1775.89 45.1661ZM1764.45 31.6034C1768.45 31.6034 1771.11 33.5926 1771.11 36.9079C1771.11 40.1027 1768.51 42.0919 1764.45 42.0919C1760.46 42.0919 1757.92 40.1027 1757.92 36.9079C1757.92 33.5926 1760.52 31.6034 1764.45 31.6034ZM1764.45 60.899C1759.61 60.899 1756.58 58.5481 1756.58 54.8108C1756.58 51.0735 1759.61 48.7829 1764.45 48.7829C1769.35 48.7829 1772.44 51.0735 1772.44 54.8108C1772.44 58.5481 1769.35 60.899 1764.45 60.899Z" fill="white"/>
<path d="M1589.39 -8H1805.61V8.32558H1589.39V-8Z" fill="white"/>
<path d="M1589.39 83.6744H1805.61V100H1589.39V83.6744Z" fill="white"/>
<path d="M1805.61 100V-8H1822V100H1805.61Z" fill="white"/>
<path d="M1573 100V-8H1589.39V100H1573Z" fill="white"/>
<path d="M1917.99 25.1535V32.9898H1926.46V84.3024H1936.26V25.1535H1917.99Z" fill="white"/>
<path d="M1941.68 25.1535V32.9898H1950.16V67.3488H1959.96V25.1535H1941.68Z" fill="white"/>
<path d="M1965.38 25.1535V32.9898H1973.85V67.3488H1983.66V25.1535H1965.38Z" fill="white"/>
<path d="M2029.81 50.531H2022.91V42.6344H2013.65V50.531H2002.27L2020.79 25.1535H2010.5L1990.53 51.9174V58.4878H2013.35V67.3488H2022.91V58.4878H2029.81V50.531Z" fill="white"/>
<path d="M2029.27 25.1535V32.9898H2037.74V67.3488H2047.54V25.1535H2029.27Z" fill="white"/>
<path d="M2083.89 45.1661C2087.04 43.2372 2088.85 40.2835 2088.85 36.486C2088.85 29.0716 2082.2 24.4301 2072.45 24.4301C2062.83 24.4301 2056.17 29.0716 2056.17 36.486C2056.17 40.2835 2057.93 43.2372 2061.07 45.1661C2057.02 47.2156 2054.66 50.5913 2054.66 55.1122C2054.66 63.069 2061.74 68.0722 2072.45 68.0722C2083.22 68.0722 2090.36 63.069 2090.36 55.1122C2090.36 50.5913 2088 47.2156 2083.89 45.1661ZM2072.45 31.6034C2076.45 31.6034 2079.11 33.5926 2079.11 36.9079C2079.11 40.1027 2076.51 42.0919 2072.45 42.0919C2068.46 42.0919 2065.92 40.1027 2065.92 36.9079C2065.92 33.5926 2068.52 31.6034 2072.45 31.6034ZM2072.45 60.899C2067.61 60.899 2064.58 58.5481 2064.58 54.8108C2064.58 51.0735 2067.61 48.7829 2072.45 48.7829C2077.35 48.7829 2080.44 51.0735 2080.44 54.8108C2080.44 58.5481 2077.35 60.899 2072.45 60.899Z" fill="white"/>
<path d="M1897.39 -8H2113.61V8.32558H1897.39V-8Z" fill="white"/>
<path d="M1897.39 83.6744H2113.61V100H1897.39V83.6744Z" fill="white"/>
<path d="M2113.61 100V-8H2130V100H2113.61Z" fill="white"/>
<path d="M1881 100V-8H1897.39V100H1881Z" fill="white"/>
<path d="M-200.48 585.153V592.99H-192.007V644.302H-182.204V585.153H-200.48Z" fill="white"/>
<path d="M-176.781 585.153V592.99H-168.309V627.349H-158.505V585.153H-176.781Z" fill="white"/>
<path d="M-153.083 585.153V592.99H-144.611V627.349H-134.807V585.153H-153.083Z" fill="white"/>
<path d="M-88.6571 610.531H-95.556V602.634H-104.815V610.531H-116.192L-97.6741 585.153H-107.962L-127.932 611.917V618.488H-105.118V627.349H-95.556V618.488H-88.6571V610.531Z" fill="white"/>
<path d="M-89.198 585.153V592.99H-80.7257V627.349H-70.922V585.153H-89.198Z" fill="white"/>
<path d="M-34.5757 605.166C-31.4289 603.237 -29.6134 600.284 -29.6134 596.486C-29.6134 589.072 -36.2702 584.43 -46.0133 584.43C-55.6355 584.43 -62.2923 589.072 -62.2923 596.486C-62.2923 600.284 -60.5373 603.237 -57.3904 605.166C-61.445 607.216 -63.8052 610.591 -63.8052 615.112C-63.8052 623.069 -56.7248 628.072 -46.0133 628.072C-35.2414 628.072 -28.1005 623.069 -28.1005 615.112C-28.1005 610.591 -30.4606 607.216 -34.5757 605.166ZM-46.0133 591.603C-42.0193 591.603 -39.3565 593.593 -39.3565 596.908C-39.3565 600.103 -41.9587 602.092 -46.0133 602.092C-50.0074 602.092 -52.5491 600.103 -52.5491 596.908C-52.5491 593.593 -49.9469 591.603 -46.0133 591.603ZM-46.0133 620.899C-50.8547 620.899 -53.8805 618.548 -53.8805 614.811C-53.8805 611.073 -50.8547 608.783 -46.0133 608.783C-41.1115 608.783 -38.0252 611.073 -38.0252 614.811C-38.0252 618.548 -41.1115 620.899 -46.0133 620.899Z" fill="white"/>
<path d="M-221.075 552H-4.85521V568.326H-221.075V552Z" fill="white"/>
<path d="M-221.075 643.674H-4.85521V660H-221.075V643.674Z" fill="white"/>
<path d="M-4.85521 660V552H11.5347V660H-4.85521Z" fill="white"/>
<path d="M-237.465 660V552H-221.075V660H-237.465Z" fill="white"/>
<path d="M107.52 585.153V592.99H115.993V644.302H125.796V585.153H107.52Z" fill="white"/>
<path d="M131.219 585.153V592.99H139.691V627.349H149.495V585.153H131.219Z" fill="white"/>
<path d="M154.917 585.153V592.99H163.389V627.349H173.193V585.153H154.917Z" fill="white"/>
<path d="M219.343 610.531H212.444V602.634H203.185V610.531H191.808L210.326 585.153H200.038L180.068 611.917V618.488H202.882V627.349H212.444V618.488H219.343V610.531Z" fill="white"/>
<path d="M218.802 585.153V592.99H227.274V627.349H237.078V585.153H218.802Z" fill="white"/>
<path d="M273.424 605.166C276.571 603.237 278.387 600.284 278.387 596.486C278.387 589.072 271.73 584.43 261.987 584.43C252.365 584.43 245.708 589.072 245.708 596.486C245.708 600.284 247.463 603.237 250.61 605.166C246.555 607.216 244.195 610.591 244.195 615.112C244.195 623.069 251.275 628.072 261.987 628.072C272.759 628.072 279.9 623.069 279.9 615.112C279.9 610.591 277.539 607.216 273.424 605.166ZM261.987 591.603C265.981 591.603 268.643 593.593 268.643 596.908C268.643 600.103 266.041 602.092 261.987 602.092C257.993 602.092 255.451 600.103 255.451 596.908C255.451 593.593 258.053 591.603 261.987 591.603ZM261.987 620.899C257.145 620.899 254.12 618.548 254.12 614.811C254.12 611.073 257.145 608.783 261.987 608.783C266.888 608.783 269.975 611.073 269.975 614.811C269.975 618.548 266.888 620.899 261.987 620.899Z" fill="white"/>
<path d="M86.9245 552H303.145V568.326H86.9245V552Z" fill="white"/>
<path d="M86.9245 643.674H303.145V660H86.9245V643.674Z" fill="white"/>
<path d="M303.145 660V552H319.535V660H303.145Z" fill="white"/>
<path d="M70.5347 660V552H86.9245V660H70.5347Z" fill="white"/>
<path d="M415.52 585.153V592.99H423.993V644.302H433.796V585.153H415.52Z" fill="white"/>
<path d="M439.219 585.153V592.99H447.691V627.349H457.495V585.153H439.219Z" fill="white"/>
<path d="M462.917 585.153V592.99H471.389V627.349H481.193V585.153H462.917Z" fill="white"/>
<path d="M527.343 610.531H520.444V602.634H511.185V610.531H499.808L518.326 585.153H508.038L488.068 611.917V618.488H510.882V627.349H520.444V618.488H527.343V610.531Z" fill="white"/>
<path d="M526.802 585.153V592.99H535.274V627.349H545.078V585.153H526.802Z" fill="white"/>
<path d="M581.424 605.166C584.571 603.237 586.387 600.284 586.387 596.486C586.387 589.072 579.73 584.43 569.987 584.43C560.365 584.43 553.708 589.072 553.708 596.486C553.708 600.284 555.463 603.237 558.61 605.166C554.555 607.216 552.195 610.591 552.195 615.112C552.195 623.069 559.275 628.072 569.987 628.072C580.759 628.072 587.9 623.069 587.9 615.112C587.9 610.591 585.539 607.216 581.424 605.166ZM569.987 591.603C573.981 591.603 576.643 593.593 576.643 596.908C576.643 600.103 574.041 602.092 569.987 602.092C565.993 602.092 563.451 600.103 563.451 596.908C563.451 593.593 566.053 591.603 569.987 591.603ZM569.987 620.899C565.145 620.899 562.12 618.548 562.12 614.811C562.12 611.073 565.145 608.783 569.987 608.783C574.888 608.783 577.975 611.073 577.975 614.811C577.975 618.548 574.888 620.899 569.987 620.899Z" fill="white"/>
<path d="M394.925 552H611.145V568.326H394.925V552Z" fill="white"/>
<path d="M394.925 643.674H611.145V660H394.925V643.674Z" fill="white"/>
<path d="M611.145 660V552H627.535V660H611.145Z" fill="white"/>
<path d="M378.535 660V552H394.925V660H378.535Z" fill="white"/>
<path d="M723.52 585.153V592.99H731.993V644.302H741.796V585.153H723.52Z" fill="white"/>
<path d="M747.219 585.153V592.99H755.691V627.349H765.495V585.153H747.219Z" fill="white"/>
<path d="M770.917 585.153V592.99H779.389V627.349H789.193V585.153H770.917Z" fill="white"/>
<path d="M835.343 610.531H828.444V602.634H819.185V610.531H807.808L826.326 585.153H816.038L796.068 611.917V618.488H818.882V627.349H828.444V618.488H835.343V610.531Z" fill="white"/>
<path d="M834.802 585.153V592.99H843.274V627.349H853.078V585.153H834.802Z" fill="white"/>
<path d="M889.424 605.166C892.571 603.237 894.387 600.284 894.387 596.486C894.387 589.072 887.73 584.43 877.987 584.43C868.365 584.43 861.708 589.072 861.708 596.486C861.708 600.284 863.463 603.237 866.61 605.166C862.555 607.216 860.195 610.591 860.195 615.112C860.195 623.069 867.275 628.072 877.987 628.072C888.759 628.072 895.9 623.069 895.9 615.112C895.9 610.591 893.539 607.216 889.424 605.166ZM877.987 591.603C881.981 591.603 884.643 593.593 884.643 596.908C884.643 600.103 882.041 602.092 877.987 602.092C873.993 602.092 871.451 600.103 871.451 596.908C871.451 593.593 874.053 591.603 877.987 591.603ZM877.987 620.899C873.145 620.899 870.12 618.548 870.12 614.811C870.12 611.073 873.145 608.783 877.987 608.783C882.888 608.783 885.975 611.073 885.975 614.811C885.975 618.548 882.888 620.899 877.987 620.899Z" fill="white"/>
<path d="M702.925 552H919.145V568.326H702.925V552Z" fill="white"/>
<path d="M702.925 643.674H919.145V660H702.925V643.674Z" fill="white"/>
<path d="M919.145 660V552H935.535V660H919.145Z" fill="white"/>
<path d="M686.535 660V552H702.925V660H686.535Z" fill="white"/>
<path d="M1031.52 585.153V592.99H1039.99V644.302H1049.8V585.153H1031.52Z" fill="white"/>
<path d="M1055.22 585.153V592.99H1063.69V627.349H1073.49V585.153H1055.22Z" fill="white"/>
<path d="M1078.92 585.153V592.99H1087.39V627.349H1097.19V585.153H1078.92Z" fill="white"/>
<path d="M1143.34 610.531H1136.44V602.634H1127.18V610.531H1115.81L1134.33 585.153H1124.04L1104.07 611.917V618.488H1126.88V627.349H1136.44V618.488H1143.34V610.531Z" fill="white"/>
<path d="M1142.8 585.153V592.99H1151.27V627.349H1161.08V585.153H1142.8Z" fill="white"/>
<path d="M1197.42 605.166C1200.57 603.237 1202.39 600.284 1202.39 596.486C1202.39 589.072 1195.73 584.43 1185.99 584.43C1176.36 584.43 1169.71 589.072 1169.71 596.486C1169.71 600.284 1171.46 603.237 1174.61 605.166C1170.55 607.216 1168.19 610.591 1168.19 615.112C1168.19 623.069 1175.28 628.072 1185.99 628.072C1196.76 628.072 1203.9 623.069 1203.9 615.112C1203.9 610.591 1201.54 607.216 1197.42 605.166ZM1185.99 591.603C1189.98 591.603 1192.64 593.593 1192.64 596.908C1192.64 600.103 1190.04 602.092 1185.99 602.092C1181.99 602.092 1179.45 600.103 1179.45 596.908C1179.45 593.593 1182.05 591.603 1185.99 591.603ZM1185.99 620.899C1181.15 620.899 1178.12 618.548 1178.12 614.811C1178.12 611.073 1181.15 608.783 1185.99 608.783C1190.89 608.783 1193.97 611.073 1193.97 614.811C1193.97 618.548 1190.89 620.899 1185.99 620.899Z" fill="white"/>
<path d="M1010.92 552H1227.14V568.326H1010.92V552Z" fill="white"/>
<path d="M1010.92 643.674H1227.14V660H1010.92V643.674Z" fill="white"/>
<path d="M1227.14 660V552H1243.53V660H1227.14Z" fill="white"/>
<path d="M994.535 660V552H1010.92V660H994.535Z" fill="white"/>
<path d="M1339.52 585.153V592.99H1347.99V644.302H1357.8V585.153H1339.52Z" fill="white"/>
<path d="M1363.22 585.153V592.99H1371.69V627.349H1381.49V585.153H1363.22Z" fill="white"/>
<path d="M1386.92 585.153V592.99H1395.39V627.349H1405.19V585.153H1386.92Z" fill="white"/>
<path d="M1451.34 610.531H1444.44V602.634H1435.18V610.531H1423.81L1442.33 585.153H1432.04L1412.07 611.917V618.488H1434.88V627.349H1444.44V618.488H1451.34V610.531Z" fill="white"/>
<path d="M1450.8 585.153V592.99H1459.27V627.349H1469.08V585.153H1450.8Z" fill="white"/>
<path d="M1505.42 605.166C1508.57 603.237 1510.39 600.284 1510.39 596.486C1510.39 589.072 1503.73 584.43 1493.99 584.43C1484.36 584.43 1477.71 589.072 1477.71 596.486C1477.71 600.284 1479.46 603.237 1482.61 605.166C1478.55 607.216 1476.19 610.591 1476.19 615.112C1476.19 623.069 1483.28 628.072 1493.99 628.072C1504.76 628.072 1511.9 623.069 1511.9 615.112C1511.9 610.591 1509.54 607.216 1505.42 605.166ZM1493.99 591.603C1497.98 591.603 1500.64 593.593 1500.64 596.908C1500.64 600.103 1498.04 602.092 1493.99 602.092C1489.99 602.092 1487.45 600.103 1487.45 596.908C1487.45 593.593 1490.05 591.603 1493.99 591.603ZM1493.99 620.899C1489.15 620.899 1486.12 618.548 1486.12 614.811C1486.12 611.073 1489.15 608.783 1493.99 608.783C1498.89 608.783 1501.97 611.073 1501.97 614.811C1501.97 618.548 1498.89 620.899 1493.99 620.899Z" fill="white"/>
<path d="M1318.92 552H1535.14V568.326H1318.92V552Z" fill="white"/>
<path d="M1318.92 643.674H1535.14V660H1318.92V643.674Z" fill="white"/>
<path d="M1535.14 660V552H1551.53V660H1535.14Z" fill="white"/>
<path d="M1302.53 660V552H1318.92V660H1302.53Z" fill="white"/>
<path d="M1647.52 585.153V592.99H1655.99V644.302H1665.8V585.153H1647.52Z" fill="white"/>
<path d="M1671.22 585.153V592.99H1679.69V627.349H1689.49V585.153H1671.22Z" fill="white"/>
<path d="M1694.92 585.153V592.99H1703.39V627.349H1713.19V585.153H1694.92Z" fill="white"/>
<path d="M1759.34 610.531H1752.44V602.634H1743.18V610.531H1731.81L1750.33 585.153H1740.04L1720.07 611.917V618.488H1742.88V627.349H1752.44V618.488H1759.34V610.531Z" fill="white"/>
<path d="M1758.8 585.153V592.99H1767.27V627.349H1777.08V585.153H1758.8Z" fill="white"/>
<path d="M1813.42 605.166C1816.57 603.237 1818.39 600.284 1818.39 596.486C1818.39 589.072 1811.73 584.43 1801.99 584.43C1792.36 584.43 1785.71 589.072 1785.71 596.486C1785.71 600.284 1787.46 603.237 1790.61 605.166C1786.55 607.216 1784.19 610.591 1784.19 615.112C1784.19 623.069 1791.28 628.072 1801.99 628.072C1812.76 628.072 1819.9 623.069 1819.9 615.112C1819.9 610.591 1817.54 607.216 1813.42 605.166ZM1801.99 591.603C1805.98 591.603 1808.64 593.593 1808.64 596.908C1808.64 600.103 1806.04 602.092 1801.99 602.092C1797.99 602.092 1795.45 600.103 1795.45 596.908C1795.45 593.593 1798.05 591.603 1801.99 591.603ZM1801.99 620.899C1797.15 620.899 1794.12 618.548 1794.12 614.811C1794.12 611.073 1797.15 608.783 1801.99 608.783C1806.89 608.783 1809.97 611.073 1809.97 614.811C1809.97 618.548 1806.89 620.899 1801.99 620.899Z" fill="white"/>
<path d="M1626.92 552H1843.14V568.326H1626.92V552Z" fill="white"/>
<path d="M1626.92 643.674H1843.14V660H1626.92V643.674Z" fill="white"/>
<path d="M1843.14 660V552H1859.53V660H1843.14Z" fill="white"/>
<path d="M1610.53 660V552H1626.92V660H1610.53Z" fill="white"/>
<path d="M1955.52 585.153V592.99H1963.99V644.302H1973.8V585.153H1955.52Z" fill="white"/>
<path d="M1979.22 585.153V592.99H1987.69V627.349H1997.49V585.153H1979.22Z" fill="white"/>
<path d="M2002.92 585.153V592.99H2011.39V627.349H2021.19V585.153H2002.92Z" fill="white"/>
<path d="M2067.34 610.531H2060.44V602.634H2051.18V610.531H2039.81L2058.33 585.153H2048.04L2028.07 611.917V618.488H2050.88V627.349H2060.44V618.488H2067.34V610.531Z" fill="white"/>
<path d="M2066.8 585.153V592.99H2075.27V627.349H2085.08V585.153H2066.8Z" fill="white"/>
<path d="M2121.42 605.166C2124.57 603.237 2126.39 600.284 2126.39 596.486C2126.39 589.072 2119.73 584.43 2109.99 584.43C2100.36 584.43 2093.71 589.072 2093.71 596.486C2093.71 600.284 2095.46 603.237 2098.61 605.166C2094.55 607.216 2092.19 610.591 2092.19 615.112C2092.19 623.069 2099.28 628.072 2109.99 628.072C2120.76 628.072 2127.9 623.069 2127.9 615.112C2127.9 610.591 2125.54 607.216 2121.42 605.166ZM2109.99 591.603C2113.98 591.603 2116.64 593.593 2116.64 596.908C2116.64 600.103 2114.04 602.092 2109.99 602.092C2105.99 602.092 2103.45 600.103 2103.45 596.908C2103.45 593.593 2106.05 591.603 2109.99 591.603ZM2109.99 620.899C2105.15 620.899 2102.12 618.548 2102.12 614.811C2102.12 611.073 2105.15 608.783 2109.99 608.783C2114.89 608.783 2117.97 611.073 2117.97 614.811C2117.97 618.548 2114.89 620.899 2109.99 620.899Z" fill="white"/>
<path d="M1934.92 552H2151.14V568.326H1934.92V552Z" fill="white"/>
<path d="M1934.92 643.674H2151.14V660H1934.92V643.674Z" fill="white"/>
<path d="M2151.14 660V552H2167.53V660H2151.14Z" fill="white"/>
<path d="M1918.53 660V552H1934.92V660H1918.53Z" fill="white"/>
<path d="M69.9856 305.153V312.99H78.4579V364.302H88.2616V305.153H69.9856Z" fill="white"/>
<path d="M93.684 305.153V312.99H102.156V347.349H111.96V305.153H93.684Z" fill="white"/>
<path d="M117.382 305.153V312.99H125.855V347.349H135.658V305.153H117.382Z" fill="white"/>
<path d="M181.808 330.531H174.909V322.634H165.65V330.531H154.273L172.791 305.153H162.503L142.533 331.917V338.488H165.348V347.349H174.909V338.488H181.808V330.531Z" fill="white"/>
<path d="M181.267 305.153V312.99H189.74V347.349H199.543V305.153H181.267Z" fill="white"/>
<path d="M235.89 325.166C239.036 323.237 240.852 320.284 240.852 316.486C240.852 309.072 234.195 304.43 224.452 304.43C214.83 304.43 208.173 309.072 208.173 316.486C208.173 320.284 209.928 323.237 213.075 325.166C209.02 327.216 206.66 330.591 206.66 335.112C206.66 343.069 213.741 348.072 224.452 348.072C235.224 348.072 242.365 343.069 242.365 335.112C242.365 330.591 240.005 327.216 235.89 325.166ZM224.452 311.603C228.446 311.603 231.109 313.593 231.109 316.908C231.109 320.103 228.507 322.092 224.452 322.092C220.458 322.092 217.916 320.103 217.916 316.908C217.916 313.593 220.518 311.603 224.452 311.603ZM224.452 340.899C219.611 340.899 216.585 338.548 216.585 334.811C216.585 331.073 219.611 328.783 224.452 328.783C229.354 328.783 232.44 331.073 232.44 334.811C232.44 338.548 229.354 340.899 224.452 340.899Z" fill="white"/>
<path d="M49.3899 272H265.61V288.326H49.3899V272Z" fill="white"/>
<path d="M49.3899 363.674H265.61V380H49.3899V363.674Z" fill="white"/>
<path d="M265.61 380V272H282V380H265.61Z" fill="white"/>
<path d="M33 380V272H49.3899V380H33Z" fill="white"/>
<path d="M377.986 305.153V312.99H386.458V364.302H396.262V305.153H377.986Z" fill="white"/>
<path d="M401.684 305.153V312.99H410.156V347.349H419.96V305.153H401.684Z" fill="white"/>
<path d="M425.382 305.153V312.99H433.855V347.349H443.658V305.153H425.382Z" fill="white"/>
<path d="M489.808 330.531H482.909V322.634H473.65V330.531H462.273L480.791 305.153H470.503L450.533 331.917V338.488H473.348V347.349H482.909V338.488H489.808V330.531Z" fill="white"/>
<path d="M489.267 305.153V312.99H497.74V347.349H507.543V305.153H489.267Z" fill="white"/>
<path d="M543.89 325.166C547.036 323.237 548.852 320.284 548.852 316.486C548.852 309.072 542.195 304.43 532.452 304.43C522.83 304.43 516.173 309.072 516.173 316.486C516.173 320.284 517.928 323.237 521.075 325.166C517.02 327.216 514.66 330.591 514.66 335.112C514.66 343.069 521.741 348.072 532.452 348.072C543.224 348.072 550.365 343.069 550.365 335.112C550.365 330.591 548.005 327.216 543.89 325.166ZM532.452 311.603C536.446 311.603 539.109 313.593 539.109 316.908C539.109 320.103 536.507 322.092 532.452 322.092C528.458 322.092 525.916 320.103 525.916 316.908C525.916 313.593 528.518 311.603 532.452 311.603ZM532.452 340.899C527.611 340.899 524.585 338.548 524.585 334.811C524.585 331.073 527.611 328.783 532.452 328.783C537.354 328.783 540.44 331.073 540.44 334.811C540.44 338.548 537.354 340.899 532.452 340.899Z" fill="white"/>
<path d="M357.39 272H573.61V288.326H357.39V272Z" fill="white"/>
<path d="M357.39 363.674H573.61V380H357.39V363.674Z" fill="white"/>
<path d="M573.61 380V272H590V380H573.61Z" fill="white"/>
<path d="M341 380V272H357.39V380H341Z" fill="white"/>
<path d="M685.986 305.153V312.99H694.458V364.302H704.262V305.153H685.986Z" fill="white"/>
<path d="M709.684 305.153V312.99H718.156V347.349H727.96V305.153H709.684Z" fill="white"/>
<path d="M733.382 305.153V312.99H741.855V347.349H751.658V305.153H733.382Z" fill="white"/>
<path d="M797.808 330.531H790.909V322.634H781.65V330.531H770.273L788.791 305.153H778.503L758.533 331.917V338.488H781.348V347.349H790.909V338.488H797.808V330.531Z" fill="white"/>
<path d="M797.267 305.153V312.99H805.74V347.349H815.543V305.153H797.267Z" fill="white"/>
<path d="M851.89 325.166C855.036 323.237 856.852 320.284 856.852 316.486C856.852 309.072 850.195 304.43 840.452 304.43C830.83 304.43 824.173 309.072 824.173 316.486C824.173 320.284 825.928 323.237 829.075 325.166C825.02 327.216 822.66 330.591 822.66 335.112C822.66 343.069 829.741 348.072 840.452 348.072C851.224 348.072 858.365 343.069 858.365 335.112C858.365 330.591 856.005 327.216 851.89 325.166ZM840.452 311.603C844.446 311.603 847.109 313.593 847.109 316.908C847.109 320.103 844.507 322.092 840.452 322.092C836.458 322.092 833.916 320.103 833.916 316.908C833.916 313.593 836.518 311.603 840.452 311.603ZM840.452 340.899C835.611 340.899 832.585 338.548 832.585 334.811C832.585 331.073 835.611 328.783 840.452 328.783C845.354 328.783 848.44 331.073 848.44 334.811C848.44 338.548 845.354 340.899 840.452 340.899Z" fill="white"/>
<path d="M665.39 272H881.61V288.326H665.39V272Z" fill="white"/>
<path d="M665.39 363.674H881.61V380H665.39V363.674Z" fill="white"/>
<path d="M881.61 380V272H898V380H881.61Z" fill="white"/>
<path d="M649 380V272H665.39V380H649Z" fill="white"/>
<path d="M993.986 305.153V312.99H1002.46V364.302H1012.26V305.153H993.986Z" fill="white"/>
<path d="M1017.68 305.153V312.99H1026.16V347.349H1035.96V305.153H1017.68Z" fill="white"/>
<path d="M1041.38 305.153V312.99H1049.85V347.349H1059.66V305.153H1041.38Z" fill="white"/>
<path d="M1105.81 330.531H1098.91V322.634H1089.65V330.531H1078.27L1096.79 305.153H1086.5L1066.53 331.917V338.488H1089.35V347.349H1098.91V338.488H1105.81V330.531Z" fill="white"/>
<path d="M1105.27 305.153V312.99H1113.74V347.349H1123.54V305.153H1105.27Z" fill="white"/>
<path d="M1159.89 325.166C1163.04 323.237 1164.85 320.284 1164.85 316.486C1164.85 309.072 1158.2 304.43 1148.45 304.43C1138.83 304.43 1132.17 309.072 1132.17 316.486C1132.17 320.284 1133.93 323.237 1137.07 325.166C1133.02 327.216 1130.66 330.591 1130.66 335.112C1130.66 343.069 1137.74 348.072 1148.45 348.072C1159.22 348.072 1166.36 343.069 1166.36 335.112C1166.36 330.591 1164 327.216 1159.89 325.166ZM1148.45 311.603C1152.45 311.603 1155.11 313.593 1155.11 316.908C1155.11 320.103 1152.51 322.092 1148.45 322.092C1144.46 322.092 1141.92 320.103 1141.92 316.908C1141.92 313.593 1144.52 311.603 1148.45 311.603ZM1148.45 340.899C1143.61 340.899 1140.58 338.548 1140.58 334.811C1140.58 331.073 1143.61 328.783 1148.45 328.783C1153.35 328.783 1156.44 331.073 1156.44 334.811C1156.44 338.548 1153.35 340.899 1148.45 340.899Z" fill="white"/>
<path d="M973.39 272H1189.61V288.326H973.39V272Z" fill="white"/>
<path d="M973.39 363.674H1189.61V380H973.39V363.674Z" fill="white"/>
<path d="M1189.61 380V272H1206V380H1189.61Z" fill="white"/>
<path d="M957 380V272H973.39V380H957Z" fill="white"/>
<path d="M1301.99 305.153V312.99H1310.46V364.302H1320.26V305.153H1301.99Z" fill="white"/>
<path d="M1325.68 305.153V312.99H1334.16V347.349H1343.96V305.153H1325.68Z" fill="white"/>
<path d="M1349.38 305.153V312.99H1357.85V347.349H1367.66V305.153H1349.38Z" fill="white"/>
<path d="M1413.81 330.531H1406.91V322.634H1397.65V330.531H1386.27L1404.79 305.153H1394.5L1374.53 331.917V338.488H1397.35V347.349H1406.91V338.488H1413.81V330.531Z" fill="white"/>
<path d="M1413.27 305.153V312.99H1421.74V347.349H1431.54V305.153H1413.27Z" fill="white"/>
<path d="M1467.89 325.166C1471.04 323.237 1472.85 320.284 1472.85 316.486C1472.85 309.072 1466.2 304.43 1456.45 304.43C1446.83 304.43 1440.17 309.072 1440.17 316.486C1440.17 320.284 1441.93 323.237 1445.07 325.166C1441.02 327.216 1438.66 330.591 1438.66 335.112C1438.66 343.069 1445.74 348.072 1456.45 348.072C1467.22 348.072 1474.36 343.069 1474.36 335.112C1474.36 330.591 1472 327.216 1467.89 325.166ZM1456.45 311.603C1460.45 311.603 1463.11 313.593 1463.11 316.908C1463.11 320.103 1460.51 322.092 1456.45 322.092C1452.46 322.092 1449.92 320.103 1449.92 316.908C1449.92 313.593 1452.52 311.603 1456.45 311.603ZM1456.45 340.899C1451.61 340.899 1448.58 338.548 1448.58 334.811C1448.58 331.073 1451.61 328.783 1456.45 328.783C1461.35 328.783 1464.44 331.073 1464.44 334.811C1464.44 338.548 1461.35 340.899 1456.45 340.899Z" fill="white"/>
<path d="M1281.39 272H1497.61V288.326H1281.39V272Z" fill="white"/>
<path d="M1281.39 363.674H1497.61V380H1281.39V363.674Z" fill="white"/>
<path d="M1497.61 380V272H1514V380H1497.61Z" fill="white"/>
<path d="M1265 380V272H1281.39V380H1265Z" fill="white"/>
<path d="M1609.99 305.153V312.99H1618.46V364.302H1628.26V305.153H1609.99Z" fill="white"/>
<path d="M1633.68 305.153V312.99H1642.16V347.349H1651.96V305.153H1633.68Z" fill="white"/>
<path d="M1657.38 305.153V312.99H1665.85V347.349H1675.66V305.153H1657.38Z" fill="white"/>
<path d="M1721.81 330.531H1714.91V322.634H1705.65V330.531H1694.27L1712.79 305.153H1702.5L1682.53 331.917V338.488H1705.35V347.349H1714.91V338.488H1721.81V330.531Z" fill="white"/>
<path d="M1721.27 305.153V312.99H1729.74V347.349H1739.54V305.153H1721.27Z" fill="white"/>
<path d="M1775.89 325.166C1779.04 323.237 1780.85 320.284 1780.85 316.486C1780.85 309.072 1774.2 304.43 1764.45 304.43C1754.83 304.43 1748.17 309.072 1748.17 316.486C1748.17 320.284 1749.93 323.237 1753.07 325.166C1749.02 327.216 1746.66 330.591 1746.66 335.112C1746.66 343.069 1753.74 348.072 1764.45 348.072C1775.22 348.072 1782.36 343.069 1782.36 335.112C1782.36 330.591 1780 327.216 1775.89 325.166ZM1764.45 311.603C1768.45 311.603 1771.11 313.593 1771.11 316.908C1771.11 320.103 1768.51 322.092 1764.45 322.092C1760.46 322.092 1757.92 320.103 1757.92 316.908C1757.92 313.593 1760.52 311.603 1764.45 311.603ZM1764.45 340.899C1759.61 340.899 1756.58 338.548 1756.58 334.811C1756.58 331.073 1759.61 328.783 1764.45 328.783C1769.35 328.783 1772.44 331.073 1772.44 334.811C1772.44 338.548 1769.35 340.899 1764.45 340.899Z" fill="white"/>
<path d="M1589.39 272H1805.61V288.326H1589.39V272Z" fill="white"/>
<path d="M1589.39 363.674H1805.61V380H1589.39V363.674Z" fill="white"/>
<path d="M1805.61 380V272H1822V380H1805.61Z" fill="white"/>
<path d="M1573 380V272H1589.39V380H1573Z" fill="white"/>
<path d="M1917.99 305.153V312.99H1926.46V364.302H1936.26V305.153H1917.99Z" fill="white"/>
<path d="M1941.68 305.153V312.99H1950.16V347.349H1959.96V305.153H1941.68Z" fill="white"/>
<path d="M1965.38 305.153V312.99H1973.85V347.349H1983.66V305.153H1965.38Z" fill="white"/>
<path d="M2029.81 330.531H2022.91V322.634H2013.65V330.531H2002.27L2020.79 305.153H2010.5L1990.53 331.917V338.488H2013.35V347.349H2022.91V338.488H2029.81V330.531Z" fill="white"/>
<path d="M2029.27 305.153V312.99H2037.74V347.349H2047.54V305.153H2029.27Z" fill="white"/>
<path d="M2083.89 325.166C2087.04 323.237 2088.85 320.284 2088.85 316.486C2088.85 309.072 2082.2 304.43 2072.45 304.43C2062.83 304.43 2056.17 309.072 2056.17 316.486C2056.17 320.284 2057.93 323.237 2061.07 325.166C2057.02 327.216 2054.66 330.591 2054.66 335.112C2054.66 343.069 2061.74 348.072 2072.45 348.072C2083.22 348.072 2090.36 343.069 2090.36 335.112C2090.36 330.591 2088 327.216 2083.89 325.166ZM2072.45 311.603C2076.45 311.603 2079.11 313.593 2079.11 316.908C2079.11 320.103 2076.51 322.092 2072.45 322.092C2068.46 322.092 2065.92 320.103 2065.92 316.908C2065.92 313.593 2068.52 311.603 2072.45 311.603ZM2072.45 340.899C2067.61 340.899 2064.58 338.548 2064.58 334.811C2064.58 331.073 2067.61 328.783 2072.45 328.783C2077.35 328.783 2080.44 331.073 2080.44 334.811C2080.44 338.548 2077.35 340.899 2072.45 340.899Z" fill="white"/>
<path d="M1897.39 272H2113.61V288.326H1897.39V272Z" fill="white"/>
<path d="M1897.39 363.674H2113.61V380H1897.39V363.674Z" fill="white"/>
<path d="M2113.61 380V272H2130V380H2113.61Z" fill="white"/>
<path d="M1881 380V272H1897.39V380H1881Z" fill="white"/>
<path d="M-200.48 865.153V872.99H-192.007V924.302H-182.204V865.153H-200.48Z" fill="white"/>
<path d="M-176.781 865.153V872.99H-168.309V907.349H-158.505V865.153H-176.781Z" fill="white"/>
<path d="M-153.083 865.153V872.99H-144.611V907.349H-134.807V865.153H-153.083Z" fill="white"/>
<path d="M-88.6571 890.531H-95.556V882.634H-104.815V890.531H-116.192L-97.6741 865.153H-107.962L-127.932 891.917V898.488H-105.118V907.349H-95.556V898.488H-88.6571V890.531Z" fill="white"/>
<path d="M-89.198 865.153V872.99H-80.7257V907.349H-70.922V865.153H-89.198Z" fill="white"/>
<path d="M-34.5757 885.166C-31.4289 883.237 -29.6134 880.284 -29.6134 876.486C-29.6134 869.072 -36.2702 864.43 -46.0133 864.43C-55.6355 864.43 -62.2923 869.072 -62.2923 876.486C-62.2923 880.284 -60.5373 883.237 -57.3904 885.166C-61.445 887.216 -63.8052 890.591 -63.8052 895.112C-63.8052 903.069 -56.7248 908.072 -46.0133 908.072C-35.2414 908.072 -28.1005 903.069 -28.1005 895.112C-28.1005 890.591 -30.4606 887.216 -34.5757 885.166ZM-46.0133 871.603C-42.0193 871.603 -39.3565 873.593 -39.3565 876.908C-39.3565 880.103 -41.9587 882.092 -46.0133 882.092C-50.0074 882.092 -52.5491 880.103 -52.5491 876.908C-52.5491 873.593 -49.9469 871.603 -46.0133 871.603ZM-46.0133 900.899C-50.8547 900.899 -53.8805 898.548 -53.8805 894.811C-53.8805 891.073 -50.8547 888.783 -46.0133 888.783C-41.1115 888.783 -38.0252 891.073 -38.0252 894.811C-38.0252 898.548 -41.1115 900.899 -46.0133 900.899Z" fill="white"/>
<path d="M-221.075 832H-4.85521V848.326H-221.075V832Z" fill="white"/>
<path d="M-221.075 923.674H-4.85521V940H-221.075V923.674Z" fill="white"/>
<path d="M-4.85521 940V832H11.5347V940H-4.85521Z" fill="white"/>
<path d="M-237.465 940V832H-221.075V940H-237.465Z" fill="white"/>
<path d="M107.52 865.153V872.99H115.993V924.302H125.796V865.153H107.52Z" fill="white"/>
<path d="M131.219 865.153V872.99H139.691V907.349H149.495V865.153H131.219Z" fill="white"/>
<path d="M154.917 865.153V872.99H163.389V907.349H173.193V865.153H154.917Z" fill="white"/>
<path d="M219.343 890.531H212.444V882.634H203.185V890.531H191.808L210.326 865.153H200.038L180.068 891.917V898.488H202.882V907.349H212.444V898.488H219.343V890.531Z" fill="white"/>
<path d="M218.802 865.153V872.99H227.274V907.349H237.078V865.153H218.802Z" fill="white"/>
<path d="M273.424 885.166C276.571 883.237 278.387 880.284 278.387 876.486C278.387 869.072 271.73 864.43 261.987 864.43C252.365 864.43 245.708 869.072 245.708 876.486C245.708 880.284 247.463 883.237 250.61 885.166C246.555 887.216 244.195 890.591 244.195 895.112C244.195 903.069 251.275 908.072 261.987 908.072C272.759 908.072 279.9 903.069 279.9 895.112C279.9 890.591 277.539 887.216 273.424 885.166ZM261.987 871.603C265.981 871.603 268.643 873.593 268.643 876.908C268.643 880.103 266.041 882.092 261.987 882.092C257.993 882.092 255.451 880.103 255.451 876.908C255.451 873.593 258.053 871.603 261.987 871.603ZM261.987 900.899C257.145 900.899 254.12 898.548 254.12 894.811C254.12 891.073 257.145 888.783 261.987 888.783C266.888 888.783 269.975 891.073 269.975 894.811C269.975 898.548 266.888 900.899 261.987 900.899Z" fill="white"/>
<path d="M86.9245 832H303.145V848.326H86.9245V832Z" fill="white"/>
<path d="M86.9245 923.674H303.145V940H86.9245V923.674Z" fill="white"/>
<path d="M303.145 940V832H319.535V940H303.145Z" fill="white"/>
<path d="M70.5347 940V832H86.9245V940H70.5347Z" fill="white"/>
<path d="M415.52 865.153V872.99H423.993V924.302H433.796V865.153H415.52Z" fill="white"/>
<path d="M439.219 865.153V872.99H447.691V907.349H457.495V865.153H439.219Z" fill="white"/>
<path d="M462.917 865.153V872.99H471.389V907.349H481.193V865.153H462.917Z" fill="white"/>
<path d="M527.343 890.531H520.444V882.634H511.185V890.531H499.808L518.326 865.153H508.038L488.068 891.917V898.488H510.882V907.349H520.444V898.488H527.343V890.531Z" fill="white"/>
<path d="M526.802 865.153V872.99H535.274V907.349H545.078V865.153H526.802Z" fill="white"/>
<path d="M581.424 885.166C584.571 883.237 586.387 880.284 586.387 876.486C586.387 869.072 579.73 864.43 569.987 864.43C560.365 864.43 553.708 869.072 553.708 876.486C553.708 880.284 555.463 883.237 558.61 885.166C554.555 887.216 552.195 890.591 552.195 895.112C552.195 903.069 559.275 908.072 569.987 908.072C580.759 908.072 587.9 903.069 587.9 895.112C587.9 890.591 585.539 887.216 581.424 885.166ZM569.987 871.603C573.981 871.603 576.643 873.593 576.643 876.908C576.643 880.103 574.041 882.092 569.987 882.092C565.993 882.092 563.451 880.103 563.451 876.908C563.451 873.593 566.053 871.603 569.987 871.603ZM569.987 900.899C565.145 900.899 562.12 898.548 562.12 894.811C562.12 891.073 565.145 888.783 569.987 888.783C574.888 888.783 577.975 891.073 577.975 894.811C577.975 898.548 574.888 900.899 569.987 900.899Z" fill="white"/>
<path d="M394.925 832H611.145V848.326H394.925V832Z" fill="white"/>
<path d="M394.925 923.674H611.145V940H394.925V923.674Z" fill="white"/>
<path d="M611.145 940V832H627.535V940H611.145Z" fill="white"/>
<path d="M378.535 940V832H394.925V940H378.535Z" fill="white"/>
<path d="M723.52 865.153V872.99H731.993V924.302H741.796V865.153H723.52Z" fill="white"/>
<path d="M747.219 865.153V872.99H755.691V907.349H765.495V865.153H747.219Z" fill="white"/>
<path d="M770.917 865.153V872.99H779.389V907.349H789.193V865.153H770.917Z" fill="white"/>
<path d="M835.343 890.531H828.444V882.634H819.185V890.531H807.808L826.326 865.153H816.038L796.068 891.917V898.488H818.882V907.349H828.444V898.488H835.343V890.531Z" fill="white"/>
<path d="M834.802 865.153V872.99H843.274V907.349H853.078V865.153H834.802Z" fill="white"/>
<path d="M889.424 885.166C892.571 883.237 894.387 880.284 894.387 876.486C894.387 869.072 887.73 864.43 877.987 864.43C868.365 864.43 861.708 869.072 861.708 876.486C861.708 880.284 863.463 883.237 866.61 885.166C862.555 887.216 860.195 890.591 860.195 895.112C860.195 903.069 867.275 908.072 877.987 908.072C888.759 908.072 895.9 903.069 895.9 895.112C895.9 890.591 893.539 887.216 889.424 885.166ZM877.987 871.603C881.981 871.603 884.643 873.593 884.643 876.908C884.643 880.103 882.041 882.092 877.987 882.092C873.993 882.092 871.451 880.103 871.451 876.908C871.451 873.593 874.053 871.603 877.987 871.603ZM877.987 900.899C873.145 900.899 870.12 898.548 870.12 894.811C870.12 891.073 873.145 888.783 877.987 888.783C882.888 888.783 885.975 891.073 885.975 894.811C885.975 898.548 882.888 900.899 877.987 900.899Z" fill="white"/>
<path d="M702.925 832H919.145V848.326H702.925V832Z" fill="white"/>
<path d="M702.925 923.674H919.145V940H702.925V923.674Z" fill="white"/>
<path d="M919.145 940V832H935.535V940H919.145Z" fill="white"/>
<path d="M686.535 940V832H702.925V940H686.535Z" fill="white"/>
<path d="M1031.52 865.153V872.99H1039.99V924.302H1049.8V865.153H1031.52Z" fill="white"/>
<path d="M1055.22 865.153V872.99H1063.69V907.349H1073.49V865.153H1055.22Z" fill="white"/>
<path d="M1078.92 865.153V872.99H1087.39V907.349H1097.19V865.153H1078.92Z" fill="white"/>
<path d="M1143.34 890.531H1136.44V882.634H1127.18V890.531H1115.81L1134.33 865.153H1124.04L1104.07 891.917V898.488H1126.88V907.349H1136.44V898.488H1143.34V890.531Z" fill="white"/>
<path d="M1142.8 865.153V872.99H1151.27V907.349H1161.08V865.153H1142.8Z" fill="white"/>
<path d="M1197.42 885.166C1200.57 883.237 1202.39 880.284 1202.39 876.486C1202.39 869.072 1195.73 864.43 1185.99 864.43C1176.36 864.43 1169.71 869.072 1169.71 876.486C1169.71 880.284 1171.46 883.237 1174.61 885.166C1170.55 887.216 1168.19 890.591 1168.19 895.112C1168.19 903.069 1175.28 908.072 1185.99 908.072C1196.76 908.072 1203.9 903.069 1203.9 895.112C1203.9 890.591 1201.54 887.216 1197.42 885.166ZM1185.99 871.603C1189.98 871.603 1192.64 873.593 1192.64 876.908C1192.64 880.103 1190.04 882.092 1185.99 882.092C1181.99 882.092 1179.45 880.103 1179.45 876.908C1179.45 873.593 1182.05 871.603 1185.99 871.603ZM1185.99 900.899C1181.15 900.899 1178.12 898.548 1178.12 894.811C1178.12 891.073 1181.15 888.783 1185.99 888.783C1190.89 888.783 1193.97 891.073 1193.97 894.811C1193.97 898.548 1190.89 900.899 1185.99 900.899Z" fill="white"/>
<path d="M1010.92 832H1227.14V848.326H1010.92V832Z" fill="white"/>
<path d="M1010.92 923.674H1227.14V940H1010.92V923.674Z" fill="white"/>
<path d="M1227.14 940V832H1243.53V940H1227.14Z" fill="white"/>
<path d="M994.535 940V832H1010.92V940H994.535Z" fill="white"/>
<path d="M1339.52 865.153V872.99H1347.99V924.302H1357.8V865.153H1339.52Z" fill="white"/>
<path d="M1363.22 865.153V872.99H1371.69V907.349H1381.49V865.153H1363.22Z" fill="white"/>
<path d="M1386.92 865.153V872.99H1395.39V907.349H1405.19V865.153H1386.92Z" fill="white"/>
<path d="M1451.34 890.531H1444.44V882.634H1435.18V890.531H1423.81L1442.33 865.153H1432.04L1412.07 891.917V898.488H1434.88V907.349H1444.44V898.488H1451.34V890.531Z" fill="white"/>
<path d="M1450.8 865.153V872.99H1459.27V907.349H1469.08V865.153H1450.8Z" fill="white"/>
<path d="M1505.42 885.166C1508.57 883.237 1510.39 880.284 1510.39 876.486C1510.39 869.072 1503.73 864.43 1493.99 864.43C1484.36 864.43 1477.71 869.072 1477.71 876.486C1477.71 880.284 1479.46 883.237 1482.61 885.166C1478.55 887.216 1476.19 890.591 1476.19 895.112C1476.19 903.069 1483.28 908.072 1493.99 908.072C1504.76 908.072 1511.9 903.069 1511.9 895.112C1511.9 890.591 1509.54 887.216 1505.42 885.166ZM1493.99 871.603C1497.98 871.603 1500.64 873.593 1500.64 876.908C1500.64 880.103 1498.04 882.092 1493.99 882.092C1489.99 882.092 1487.45 880.103 1487.45 876.908C1487.45 873.593 1490.05 871.603 1493.99 871.603ZM1493.99 900.899C1489.15 900.899 1486.12 898.548 1486.12 894.811C1486.12 891.073 1489.15 888.783 1493.99 888.783C1498.89 888.783 1501.97 891.073 1501.97 894.811C1501.97 898.548 1498.89 900.899 1493.99 900.899Z" fill="white"/>
<path d="M1318.92 832H1535.14V848.326H1318.92V832Z" fill="white"/>
<path d="M1318.92 923.674H1535.14V940H1318.92V923.674Z" fill="white"/>
<path d="M1535.14 940V832H1551.53V940H1535.14Z" fill="white"/>
<path d="M1302.53 940V832H1318.92V940H1302.53Z" fill="white"/>
<path d="M1647.52 865.153V872.99H1655.99V924.302H1665.8V865.153H1647.52Z" fill="white"/>
<path d="M1671.22 865.153V872.99H1679.69V907.349H1689.49V865.153H1671.22Z" fill="white"/>
<path d="M1694.92 865.153V872.99H1703.39V907.349H1713.19V865.153H1694.92Z" fill="white"/>
<path d="M1759.34 890.531H1752.44V882.634H1743.18V890.531H1731.81L1750.33 865.153H1740.04L1720.07 891.917V898.488H1742.88V907.349H1752.44V898.488H1759.34V890.531Z" fill="white"/>
<path d="M1758.8 865.153V872.99H1767.27V907.349H1777.08V865.153H1758.8Z" fill="white"/>
<path d="M1813.42 885.166C1816.57 883.237 1818.39 880.284 1818.39 876.486C1818.39 869.072 1811.73 864.43 1801.99 864.43C1792.36 864.43 1785.71 869.072 1785.71 876.486C1785.71 880.284 1787.46 883.237 1790.61 885.166C1786.55 887.216 1784.19 890.591 1784.19 895.112C1784.19 903.069 1791.28 908.072 1801.99 908.072C1812.76 908.072 1819.9 903.069 1819.9 895.112C1819.9 890.591 1817.54 887.216 1813.42 885.166ZM1801.99 871.603C1805.98 871.603 1808.64 873.593 1808.64 876.908C1808.64 880.103 1806.04 882.092 1801.99 882.092C1797.99 882.092 1795.45 880.103 1795.45 876.908C1795.45 873.593 1798.05 871.603 1801.99 871.603ZM1801.99 900.899C1797.15 900.899 1794.12 898.548 1794.12 894.811C1794.12 891.073 1797.15 888.783 1801.99 888.783C1806.89 888.783 1809.97 891.073 1809.97 894.811C1809.97 898.548 1806.89 900.899 1801.99 900.899Z" fill="white"/>
<path d="M1626.92 832H1843.14V848.326H1626.92V832Z" fill="white"/>
<path d="M1626.92 923.674H1843.14V940H1626.92V923.674Z" fill="white"/>
<path d="M1843.14 940V832H1859.53V940H1843.14Z" fill="white"/>
<path d="M1610.53 940V832H1626.92V940H1610.53Z" fill="white"/>
<path d="M1955.52 865.153V872.99H1963.99V924.302H1973.8V865.153H1955.52Z" fill="white"/>
<path d="M1979.22 865.153V872.99H1987.69V907.349H1997.49V865.153H1979.22Z" fill="white"/>
<path d="M2002.92 865.153V872.99H2011.39V907.349H2021.19V865.153H2002.92Z" fill="white"/>
<path d="M2067.34 890.531H2060.44V882.634H2051.18V890.531H2039.81L2058.33 865.153H2048.04L2028.07 891.917V898.488H2050.88V907.349H2060.44V898.488H2067.34V890.531Z" fill="white"/>
<path d="M2066.8 865.153V872.99H2075.27V907.349H2085.08V865.153H2066.8Z" fill="white"/>
<path d="M2121.42 885.166C2124.57 883.237 2126.39 880.284 2126.39 876.486C2126.39 869.072 2119.73 864.43 2109.99 864.43C2100.36 864.43 2093.71 869.072 2093.71 876.486C2093.71 880.284 2095.46 883.237 2098.61 885.166C2094.55 887.216 2092.19 890.591 2092.19 895.112C2092.19 903.069 2099.28 908.072 2109.99 908.072C2120.76 908.072 2127.9 903.069 2127.9 895.112C2127.9 890.591 2125.54 887.216 2121.42 885.166ZM2109.99 871.603C2113.98 871.603 2116.64 873.593 2116.64 876.908C2116.64 880.103 2114.04 882.092 2109.99 882.092C2105.99 882.092 2103.45 880.103 2103.45 876.908C2103.45 873.593 2106.05 871.603 2109.99 871.603ZM2109.99 900.899C2105.15 900.899 2102.12 898.548 2102.12 894.811C2102.12 891.073 2105.15 888.783 2109.99 888.783C2114.89 888.783 2117.97 891.073 2117.97 894.811C2117.97 898.548 2114.89 900.899 2109.99 900.899Z" fill="white"/>
<path d="M1934.92 832H2151.14V848.326H1934.92V832Z" fill="white"/>
<path d="M1934.92 923.674H2151.14V940H1934.92V923.674Z" fill="white"/>
<path d="M2151.14 940V832H2167.53V940H2151.14Z" fill="white"/>
<path d="M1918.53 940V832H1934.92V940H1918.53Z" fill="white"/>
<path d="M-95.7312 165.153V172.99H-87.2589V224.302H-77.4552V165.153H-95.7312Z" fill="white"/>
<path d="M-72.0328 165.153V172.99H-63.5605V207.349H-53.7568V165.153H-72.0328Z" fill="white"/>
<path d="M-48.3345 165.153V172.99H-39.8622V207.349H-30.0585V165.153H-48.3345Z" fill="white"/>
<path d="M16.0914 190.531H9.19255V182.634H-0.0664649V190.531H-11.4436L7.07448 165.153H-3.21331L-23.1837 191.917V198.488H-0.369044V207.349H9.19255V198.488H16.0914V190.531Z" fill="white"/>
<path d="M15.5506 165.153V172.99H24.0229V207.349H33.8265V165.153H15.5506Z" fill="white"/>
<path d="M70.1728 185.166C73.3197 183.237 75.1352 180.284 75.1352 176.486C75.1352 169.072 68.4783 164.43 58.7352 164.43C49.1131 164.43 42.4563 169.072 42.4563 176.486C42.4563 180.284 44.2113 183.237 47.3581 185.166C43.3035 187.216 40.9434 190.591 40.9434 195.112C40.9434 203.069 48.0238 208.072 58.7352 208.072C69.5071 208.072 76.6481 203.069 76.6481 195.112C76.6481 190.591 74.2879 187.216 70.1728 185.166ZM58.7352 171.603C62.7293 171.603 65.392 173.593 65.392 176.908C65.392 180.103 62.7898 182.092 58.7352 182.092C54.7411 182.092 52.1994 180.103 52.1994 176.908C52.1994 173.593 54.8016 171.603 58.7352 171.603ZM58.7352 200.899C53.8939 200.899 50.8681 198.548 50.8681 194.811C50.8681 191.073 53.8939 188.783 58.7352 188.783C63.637 188.783 66.7234 191.073 66.7234 194.811C66.7234 198.548 63.637 200.899 58.7352 200.899Z" fill="white"/>
<path d="M-116.327 132H99.8933V148.326H-116.327V132Z" fill="white"/>
<path d="M-116.327 223.674H99.8933V240H-116.327V223.674Z" fill="white"/>
<path d="M99.8933 240V132H116.283V240H99.8933Z" fill="white"/>
<path d="M-132.717 240V132H-116.327V240H-132.717Z" fill="white"/>
<path d="M212.269 165.153V172.99H220.741V224.302H230.545V165.153H212.269Z" fill="white"/>
<path d="M235.967 165.153V172.99H244.439V207.349H254.243V165.153H235.967Z" fill="white"/>
<path d="M259.666 165.153V172.99H268.138V207.349H277.941V165.153H259.666Z" fill="white"/>
<path d="M324.091 190.531H317.193V182.634H307.934V190.531H296.556L315.074 165.153H304.787L284.816 191.917V198.488H307.631V207.349H317.193V198.488H324.091V190.531Z" fill="white"/>
<path d="M323.551 165.153V172.99H332.023V207.349H341.827V165.153H323.551Z" fill="white"/>
<path d="M378.173 185.166C381.32 183.237 383.135 180.284 383.135 176.486C383.135 169.072 376.478 164.43 366.735 164.43C357.113 164.43 350.456 169.072 350.456 176.486C350.456 180.284 352.211 183.237 355.358 185.166C351.304 187.216 348.943 190.591 348.943 195.112C348.943 203.069 356.024 208.072 366.735 208.072C377.507 208.072 384.648 203.069 384.648 195.112C384.648 190.591 382.288 187.216 378.173 185.166ZM366.735 171.603C370.729 171.603 373.392 173.593 373.392 176.908C373.392 180.103 370.79 182.092 366.735 182.092C362.741 182.092 360.199 180.103 360.199 176.908C360.199 173.593 362.802 171.603 366.735 171.603ZM366.735 200.899C361.894 200.899 358.868 198.548 358.868 194.811C358.868 191.073 361.894 188.783 366.735 188.783C371.637 188.783 374.723 191.073 374.723 194.811C374.723 198.548 371.637 200.899 366.735 200.899Z" fill="white"/>
<path d="M191.673 132H407.893V148.326H191.673V132Z" fill="white"/>
<path d="M191.673 223.674H407.893V240H191.673V223.674Z" fill="white"/>
<path d="M407.893 240V132H424.283V240H407.893Z" fill="white"/>
<path d="M175.283 240V132H191.673V240H175.283Z" fill="white"/>
<path d="M520.269 165.153V172.99H528.741V224.302H538.545V165.153H520.269Z" fill="white"/>
<path d="M543.967 165.153V172.99H552.439V207.349H562.243V165.153H543.967Z" fill="white"/>
<path d="M567.666 165.153V172.99H576.138V207.349H585.941V165.153H567.666Z" fill="white"/>
<path d="M632.091 190.531H625.193V182.634H615.934V190.531H604.556L623.074 165.153H612.787L592.816 191.917V198.488H615.631V207.349H625.193V198.488H632.091V190.531Z" fill="white"/>
<path d="M631.551 165.153V172.99H640.023V207.349H649.827V165.153H631.551Z" fill="white"/>
<path d="M686.173 185.166C689.32 183.237 691.135 180.284 691.135 176.486C691.135 169.072 684.478 164.43 674.735 164.43C665.113 164.43 658.456 169.072 658.456 176.486C658.456 180.284 660.211 183.237 663.358 185.166C659.304 187.216 656.943 190.591 656.943 195.112C656.943 203.069 664.024 208.072 674.735 208.072C685.507 208.072 692.648 203.069 692.648 195.112C692.648 190.591 690.288 187.216 686.173 185.166ZM674.735 171.603C678.729 171.603 681.392 173.593 681.392 176.908C681.392 180.103 678.79 182.092 674.735 182.092C670.741 182.092 668.199 180.103 668.199 176.908C668.199 173.593 670.802 171.603 674.735 171.603ZM674.735 200.899C669.894 200.899 666.868 198.548 666.868 194.811C666.868 191.073 669.894 188.783 674.735 188.783C679.637 188.783 682.723 191.073 682.723 194.811C682.723 198.548 679.637 200.899 674.735 200.899Z" fill="white"/>
<path d="M499.673 132H715.893V148.326H499.673V132Z" fill="white"/>
<path d="M499.673 223.674H715.893V240H499.673V223.674Z" fill="white"/>
<path d="M715.893 240V132H732.283V240H715.893Z" fill="white"/>
<path d="M483.283 240V132H499.673V240H483.283Z" fill="white"/>
<path d="M828.269 165.153V172.99H836.741V224.302H846.545V165.153H828.269Z" fill="white"/>
<path d="M851.967 165.153V172.99H860.439V207.349H870.243V165.153H851.967Z" fill="white"/>
<path d="M875.666 165.153V172.99H884.138V207.349H893.941V165.153H875.666Z" fill="white"/>
<path d="M940.091 190.531H933.193V182.634H923.934V190.531H912.556L931.074 165.153H920.787L900.816 191.917V198.488H923.631V207.349H933.193V198.488H940.091V190.531Z" fill="white"/>
<path d="M939.551 165.153V172.99H948.023V207.349H957.827V165.153H939.551Z" fill="white"/>
<path d="M994.173 185.166C997.32 183.237 999.135 180.284 999.135 176.486C999.135 169.072 992.478 164.43 982.735 164.43C973.113 164.43 966.456 169.072 966.456 176.486C966.456 180.284 968.211 183.237 971.358 185.166C967.304 187.216 964.943 190.591 964.943 195.112C964.943 203.069 972.024 208.072 982.735 208.072C993.507 208.072 1000.65 203.069 1000.65 195.112C1000.65 190.591 998.288 187.216 994.173 185.166ZM982.735 171.603C986.729 171.603 989.392 173.593 989.392 176.908C989.392 180.103 986.79 182.092 982.735 182.092C978.741 182.092 976.199 180.103 976.199 176.908C976.199 173.593 978.802 171.603 982.735 171.603ZM982.735 200.899C977.894 200.899 974.868 198.548 974.868 194.811C974.868 191.073 977.894 188.783 982.735 188.783C987.637 188.783 990.723 191.073 990.723 194.811C990.723 198.548 987.637 200.899 982.735 200.899Z" fill="white"/>
<path d="M807.673 132H1023.89V148.326H807.673V132Z" fill="white"/>
<path d="M807.673 223.674H1023.89V240H807.673V223.674Z" fill="white"/>
<path d="M1023.89 240V132H1040.28V240H1023.89Z" fill="white"/>
<path d="M791.283 240V132H807.673V240H791.283Z" fill="white"/>
<path d="M1136.27 165.153V172.99H1144.74V224.302H1154.54V165.153H1136.27Z" fill="white"/>
<path d="M1159.97 165.153V172.99H1168.44V207.349H1178.24V165.153H1159.97Z" fill="white"/>
<path d="M1183.67 165.153V172.99H1192.14V207.349H1201.94V165.153H1183.67Z" fill="white"/>
<path d="M1248.09 190.531H1241.19V182.634H1231.93V190.531H1220.56L1239.07 165.153H1228.79L1208.82 191.917V198.488H1231.63V207.349H1241.19V198.488H1248.09V190.531Z" fill="white"/>
<path d="M1247.55 165.153V172.99H1256.02V207.349H1265.83V165.153H1247.55Z" fill="white"/>
<path d="M1302.17 185.166C1305.32 183.237 1307.14 180.284 1307.14 176.486C1307.14 169.072 1300.48 164.43 1290.74 164.43C1281.11 164.43 1274.46 169.072 1274.46 176.486C1274.46 180.284 1276.21 183.237 1279.36 185.166C1275.3 187.216 1272.94 190.591 1272.94 195.112C1272.94 203.069 1280.02 208.072 1290.74 208.072C1301.51 208.072 1308.65 203.069 1308.65 195.112C1308.65 190.591 1306.29 187.216 1302.17 185.166ZM1290.74 171.603C1294.73 171.603 1297.39 173.593 1297.39 176.908C1297.39 180.103 1294.79 182.092 1290.74 182.092C1286.74 182.092 1284.2 180.103 1284.2 176.908C1284.2 173.593 1286.8 171.603 1290.74 171.603ZM1290.74 200.899C1285.89 200.899 1282.87 198.548 1282.87 194.811C1282.87 191.073 1285.89 188.783 1290.74 188.783C1295.64 188.783 1298.72 191.073 1298.72 194.811C1298.72 198.548 1295.64 200.899 1290.74 200.899Z" fill="white"/>
<path d="M1115.67 132H1331.89V148.326H1115.67V132Z" fill="white"/>
<path d="M1115.67 223.674H1331.89V240H1115.67V223.674Z" fill="white"/>
<path d="M1331.89 240V132H1348.28V240H1331.89Z" fill="white"/>
<path d="M1099.28 240V132H1115.67V240H1099.28Z" fill="white"/>
<path d="M1444.27 165.153V172.99H1452.74V224.302H1462.54V165.153H1444.27Z" fill="white"/>
<path d="M1467.97 165.153V172.99H1476.44V207.349H1486.24V165.153H1467.97Z" fill="white"/>
<path d="M1491.67 165.153V172.99H1500.14V207.349H1509.94V165.153H1491.67Z" fill="white"/>
<path d="M1556.09 190.531H1549.19V182.634H1539.93V190.531H1528.56L1547.07 165.153H1536.79L1516.82 191.917V198.488H1539.63V207.349H1549.19V198.488H1556.09V190.531Z" fill="white"/>
<path d="M1555.55 165.153V172.99H1564.02V207.349H1573.83V165.153H1555.55Z" fill="white"/>
<path d="M1610.17 185.166C1613.32 183.237 1615.14 180.284 1615.14 176.486C1615.14 169.072 1608.48 164.43 1598.74 164.43C1589.11 164.43 1582.46 169.072 1582.46 176.486C1582.46 180.284 1584.21 183.237 1587.36 185.166C1583.3 187.216 1580.94 190.591 1580.94 195.112C1580.94 203.069 1588.02 208.072 1598.74 208.072C1609.51 208.072 1616.65 203.069 1616.65 195.112C1616.65 190.591 1614.29 187.216 1610.17 185.166ZM1598.74 171.603C1602.73 171.603 1605.39 173.593 1605.39 176.908C1605.39 180.103 1602.79 182.092 1598.74 182.092C1594.74 182.092 1592.2 180.103 1592.2 176.908C1592.2 173.593 1594.8 171.603 1598.74 171.603ZM1598.74 200.899C1593.89 200.899 1590.87 198.548 1590.87 194.811C1590.87 191.073 1593.89 188.783 1598.74 188.783C1603.64 188.783 1606.72 191.073 1606.72 194.811C1606.72 198.548 1603.64 200.899 1598.74 200.899Z" fill="white"/>
<path d="M1423.67 132H1639.89V148.326H1423.67V132Z" fill="white"/>
<path d="M1423.67 223.674H1639.89V240H1423.67V223.674Z" fill="white"/>
<path d="M1639.89 240V132H1656.28V240H1639.89Z" fill="white"/>
<path d="M1407.28 240V132H1423.67V240H1407.28Z" fill="white"/>
<path d="M1752.27 165.153V172.99H1760.74V224.302H1770.54V165.153H1752.27Z" fill="white"/>
<path d="M1775.97 165.153V172.99H1784.44V207.349H1794.24V165.153H1775.97Z" fill="white"/>
<path d="M1799.67 165.153V172.99H1808.14V207.349H1817.94V165.153H1799.67Z" fill="white"/>
<path d="M1864.09 190.531H1857.19V182.634H1847.93V190.531H1836.56L1855.07 165.153H1844.79L1824.82 191.917V198.488H1847.63V207.349H1857.19V198.488H1864.09V190.531Z" fill="white"/>
<path d="M1863.55 165.153V172.99H1872.02V207.349H1881.83V165.153H1863.55Z" fill="white"/>
<path d="M1918.17 185.166C1921.32 183.237 1923.14 180.284 1923.14 176.486C1923.14 169.072 1916.48 164.43 1906.74 164.43C1897.11 164.43 1890.46 169.072 1890.46 176.486C1890.46 180.284 1892.21 183.237 1895.36 185.166C1891.3 187.216 1888.94 190.591 1888.94 195.112C1888.94 203.069 1896.02 208.072 1906.74 208.072C1917.51 208.072 1924.65 203.069 1924.65 195.112C1924.65 190.591 1922.29 187.216 1918.17 185.166ZM1906.74 171.603C1910.73 171.603 1913.39 173.593 1913.39 176.908C1913.39 180.103 1910.79 182.092 1906.74 182.092C1902.74 182.092 1900.2 180.103 1900.2 176.908C1900.2 173.593 1902.8 171.603 1906.74 171.603ZM1906.74 200.899C1901.89 200.899 1898.87 198.548 1898.87 194.811C1898.87 191.073 1901.89 188.783 1906.74 188.783C1911.64 188.783 1914.72 191.073 1914.72 194.811C1914.72 198.548 1911.64 200.899 1906.74 200.899Z" fill="white"/>
<path d="M1731.67 132H1947.89V148.326H1731.67V132Z" fill="white"/>
<path d="M1731.67 223.674H1947.89V240H1731.67V223.674Z" fill="white"/>
<path d="M1947.89 240V132H1964.28V240H1947.89Z" fill="white"/>
<path d="M1715.28 240V132H1731.67V240H1715.28Z" fill="white"/>
<path d="M-58.1965 725.153V732.99H-49.7242V784.302H-39.9205V725.153H-58.1965Z" fill="white"/>
<path d="M-34.4982 725.153V732.99H-26.0258V767.349H-16.2222V725.153H-34.4982Z" fill="white"/>
<path d="M-10.7998 725.153V732.99H-2.32751V767.349H7.47616V725.153H-10.7998Z" fill="white"/>
<path d="M53.6261 750.531H46.7272V742.634H37.4682V750.531H26.0911L44.6091 725.153H34.3214L14.3509 751.917V758.488H37.1656V767.349H46.7272V758.488H53.6261V750.531Z" fill="white"/>
<path d="M53.0852 725.153V732.99H61.5575V767.349H71.3612V725.153H53.0852Z" fill="white"/>
<path d="M107.707 745.166C110.854 743.237 112.67 740.284 112.67 736.486C112.67 729.072 106.013 724.43 96.2699 724.43C86.6477 724.43 79.991 729.072 79.991 736.486C79.991 740.284 81.7459 743.237 84.8928 745.166C80.8382 747.216 78.478 750.591 78.478 755.112C78.478 763.069 85.5584 768.072 96.2699 768.072C107.042 768.072 114.183 763.069 114.183 755.112C114.183 750.591 111.823 747.216 107.707 745.166ZM96.2699 731.603C100.264 731.603 102.927 733.593 102.927 736.908C102.927 740.103 100.324 742.092 96.2699 742.092C92.2758 742.092 89.7341 740.103 89.7341 736.908C89.7341 733.593 92.3363 731.603 96.2699 731.603ZM96.2699 760.899C91.4285 760.899 88.4027 758.548 88.4027 754.811C88.4027 751.073 91.4285 748.783 96.2699 748.783C101.172 748.783 104.258 751.073 104.258 754.811C104.258 758.548 101.172 760.899 96.2699 760.899Z" fill="white"/>
<path d="M-78.7923 692H137.428V708.326H-78.7923V692Z" fill="white"/>
<path d="M-78.7923 783.674H137.428V800H-78.7923V783.674Z" fill="white"/>
<path d="M137.428 800V692H153.818V800H137.428Z" fill="white"/>
<path d="M-95.1821 800V692H-78.7923V800H-95.1821Z" fill="white"/>
<path d="M249.804 725.153V732.99H258.276V784.302H268.079V725.153H249.804Z" fill="white"/>
<path d="M273.502 725.153V732.99H281.974V767.349H291.778V725.153H273.502Z" fill="white"/>
<path d="M297.2 725.153V732.99H305.672V767.349H315.476V725.153H297.2Z" fill="white"/>
<path d="M361.626 750.531H354.727V742.634H345.468V750.531H334.091L352.609 725.153H342.321L322.351 751.917V758.488H345.166V767.349H354.727V758.488H361.626V750.531Z" fill="white"/>
<path d="M361.085 725.153V732.99H369.558V767.349H379.361V725.153H361.085Z" fill="white"/>
<path d="M415.707 745.166C418.854 743.237 420.67 740.284 420.67 736.486C420.67 729.072 414.013 724.43 404.27 724.43C394.648 724.43 387.991 729.072 387.991 736.486C387.991 740.284 389.746 743.237 392.893 745.166C388.838 747.216 386.478 750.591 386.478 755.112C386.478 763.069 393.558 768.072 404.27 768.072C415.042 768.072 422.183 763.069 422.183 755.112C422.183 750.591 419.823 747.216 415.707 745.166ZM404.27 731.603C408.264 731.603 410.927 733.593 410.927 736.908C410.927 740.103 408.324 742.092 404.27 742.092C400.276 742.092 397.734 740.103 397.734 736.908C397.734 733.593 400.336 731.603 404.27 731.603ZM404.27 760.899C399.429 760.899 396.403 758.548 396.403 754.811C396.403 751.073 399.429 748.783 404.27 748.783C409.172 748.783 412.258 751.073 412.258 754.811C412.258 758.548 409.172 760.899 404.27 760.899Z" fill="white"/>
<path d="M229.208 692H445.428V708.326H229.208V692Z" fill="white"/>
<path d="M229.208 783.674H445.428V800H229.208V783.674Z" fill="white"/>
<path d="M445.428 800V692H461.818V800H445.428Z" fill="white"/>
<path d="M212.818 800V692H229.208V800H212.818Z" fill="white"/>
<path d="M557.804 725.153V732.99H566.276V784.302H576.079V725.153H557.804Z" fill="white"/>
<path d="M581.502 725.153V732.99H589.974V767.349H599.778V725.153H581.502Z" fill="white"/>
<path d="M605.2 725.153V732.99H613.672V767.349H623.476V725.153H605.2Z" fill="white"/>
<path d="M669.626 750.531H662.727V742.634H653.468V750.531H642.091L660.609 725.153H650.321L630.351 751.917V758.488H653.166V767.349H662.727V758.488H669.626V750.531Z" fill="white"/>
<path d="M669.085 725.153V732.99H677.558V767.349H687.361V725.153H669.085Z" fill="white"/>
<path d="M723.707 745.166C726.854 743.237 728.67 740.284 728.67 736.486C728.67 729.072 722.013 724.43 712.27 724.43C702.648 724.43 695.991 729.072 695.991 736.486C695.991 740.284 697.746 743.237 700.893 745.166C696.838 747.216 694.478 750.591 694.478 755.112C694.478 763.069 701.558 768.072 712.27 768.072C723.042 768.072 730.183 763.069 730.183 755.112C730.183 750.591 727.823 747.216 723.707 745.166ZM712.27 731.603C716.264 731.603 718.927 733.593 718.927 736.908C718.927 740.103 716.324 742.092 712.27 742.092C708.276 742.092 705.734 740.103 705.734 736.908C705.734 733.593 708.336 731.603 712.27 731.603ZM712.27 760.899C707.429 760.899 704.403 758.548 704.403 754.811C704.403 751.073 707.429 748.783 712.27 748.783C717.172 748.783 720.258 751.073 720.258 754.811C720.258 758.548 717.172 760.899 712.27 760.899Z" fill="white"/>
<path d="M537.208 692H753.428V708.326H537.208V692Z" fill="white"/>
<path d="M537.208 783.674H753.428V800H537.208V783.674Z" fill="white"/>
<path d="M753.428 800V692H769.818V800H753.428Z" fill="white"/>
<path d="M520.818 800V692H537.208V800H520.818Z" fill="white"/>
<path d="M865.804 725.153V732.99H874.276V784.302H884.079V725.153H865.804Z" fill="white"/>
<path d="M889.502 725.153V732.99H897.974V767.349H907.778V725.153H889.502Z" fill="white"/>
<path d="M913.2 725.153V732.99H921.672V767.349H931.476V725.153H913.2Z" fill="white"/>
<path d="M977.626 750.531H970.727V742.634H961.468V750.531H950.091L968.609 725.153H958.321L938.351 751.917V758.488H961.166V767.349H970.727V758.488H977.626V750.531Z" fill="white"/>
<path d="M977.085 725.153V732.99H985.558V767.349H995.361V725.153H977.085Z" fill="white"/>
<path d="M1031.71 745.166C1034.85 743.237 1036.67 740.284 1036.67 736.486C1036.67 729.072 1030.01 724.43 1020.27 724.43C1010.65 724.43 1003.99 729.072 1003.99 736.486C1003.99 740.284 1005.75 743.237 1008.89 745.166C1004.84 747.216 1002.48 750.591 1002.48 755.112C1002.48 763.069 1009.56 768.072 1020.27 768.072C1031.04 768.072 1038.18 763.069 1038.18 755.112C1038.18 750.591 1035.82 747.216 1031.71 745.166ZM1020.27 731.603C1024.26 731.603 1026.93 733.593 1026.93 736.908C1026.93 740.103 1024.32 742.092 1020.27 742.092C1016.28 742.092 1013.73 740.103 1013.73 736.908C1013.73 733.593 1016.34 731.603 1020.27 731.603ZM1020.27 760.899C1015.43 760.899 1012.4 758.548 1012.4 754.811C1012.4 751.073 1015.43 748.783 1020.27 748.783C1025.17 748.783 1028.26 751.073 1028.26 754.811C1028.26 758.548 1025.17 760.899 1020.27 760.899Z" fill="white"/>
<path d="M845.208 692H1061.43V708.326H845.208V692Z" fill="white"/>
<path d="M845.208 783.674H1061.43V800H845.208V783.674Z" fill="white"/>
<path d="M1061.43 800V692H1077.82V800H1061.43Z" fill="white"/>
<path d="M828.818 800V692H845.208V800H828.818Z" fill="white"/>
<path d="M1173.8 725.153V732.99H1182.28V784.302H1192.08V725.153H1173.8Z" fill="white"/>
<path d="M1197.5 725.153V732.99H1205.97V767.349H1215.78V725.153H1197.5Z" fill="white"/>
<path d="M1221.2 725.153V732.99H1229.67V767.349H1239.48V725.153H1221.2Z" fill="white"/>
<path d="M1285.63 750.531H1278.73V742.634H1269.47V750.531H1258.09L1276.61 725.153H1266.32L1246.35 751.917V758.488H1269.17V767.349H1278.73V758.488H1285.63V750.531Z" fill="white"/>
<path d="M1285.09 725.153V732.99H1293.56V767.349H1303.36V725.153H1285.09Z" fill="white"/>
<path d="M1339.71 745.166C1342.85 743.237 1344.67 740.284 1344.67 736.486C1344.67 729.072 1338.01 724.43 1328.27 724.43C1318.65 724.43 1311.99 729.072 1311.99 736.486C1311.99 740.284 1313.75 743.237 1316.89 745.166C1312.84 747.216 1310.48 750.591 1310.48 755.112C1310.48 763.069 1317.56 768.072 1328.27 768.072C1339.04 768.072 1346.18 763.069 1346.18 755.112C1346.18 750.591 1343.82 747.216 1339.71 745.166ZM1328.27 731.603C1332.26 731.603 1334.93 733.593 1334.93 736.908C1334.93 740.103 1332.32 742.092 1328.27 742.092C1324.28 742.092 1321.73 740.103 1321.73 736.908C1321.73 733.593 1324.34 731.603 1328.27 731.603ZM1328.27 760.899C1323.43 760.899 1320.4 758.548 1320.4 754.811C1320.4 751.073 1323.43 748.783 1328.27 748.783C1333.17 748.783 1336.26 751.073 1336.26 754.811C1336.26 758.548 1333.17 760.899 1328.27 760.899Z" fill="white"/>
<path d="M1153.21 692H1369.43V708.326H1153.21V692Z" fill="white"/>
<path d="M1153.21 783.674H1369.43V800H1153.21V783.674Z" fill="white"/>
<path d="M1369.43 800V692H1385.82V800H1369.43Z" fill="white"/>
<path d="M1136.82 800V692H1153.21V800H1136.82Z" fill="white"/>
<path d="M1481.8 725.153V732.99H1490.28V784.302H1500.08V725.153H1481.8Z" fill="white"/>
<path d="M1505.5 725.153V732.99H1513.97V767.349H1523.78V725.153H1505.5Z" fill="white"/>
<path d="M1529.2 725.153V732.99H1537.67V767.349H1547.48V725.153H1529.2Z" fill="white"/>
<path d="M1593.63 750.531H1586.73V742.634H1577.47V750.531H1566.09L1584.61 725.153H1574.32L1554.35 751.917V758.488H1577.17V767.349H1586.73V758.488H1593.63V750.531Z" fill="white"/>
<path d="M1593.09 725.153V732.99H1601.56V767.349H1611.36V725.153H1593.09Z" fill="white"/>
<path d="M1647.71 745.166C1650.85 743.237 1652.67 740.284 1652.67 736.486C1652.67 729.072 1646.01 724.43 1636.27 724.43C1626.65 724.43 1619.99 729.072 1619.99 736.486C1619.99 740.284 1621.75 743.237 1624.89 745.166C1620.84 747.216 1618.48 750.591 1618.48 755.112C1618.48 763.069 1625.56 768.072 1636.27 768.072C1647.04 768.072 1654.18 763.069 1654.18 755.112C1654.18 750.591 1651.82 747.216 1647.71 745.166ZM1636.27 731.603C1640.26 731.603 1642.93 733.593 1642.93 736.908C1642.93 740.103 1640.32 742.092 1636.27 742.092C1632.28 742.092 1629.73 740.103 1629.73 736.908C1629.73 733.593 1632.34 731.603 1636.27 731.603ZM1636.27 760.899C1631.43 760.899 1628.4 758.548 1628.4 754.811C1628.4 751.073 1631.43 748.783 1636.27 748.783C1641.17 748.783 1644.26 751.073 1644.26 754.811C1644.26 758.548 1641.17 760.899 1636.27 760.899Z" fill="white"/>
<path d="M1461.21 692H1677.43V708.326H1461.21V692Z" fill="white"/>
<path d="M1461.21 783.674H1677.43V800H1461.21V783.674Z" fill="white"/>
<path d="M1677.43 800V692H1693.82V800H1677.43Z" fill="white"/>
<path d="M1444.82 800V692H1461.21V800H1444.82Z" fill="white"/>
<path d="M1789.8 725.153V732.99H1798.28V784.302H1808.08V725.153H1789.8Z" fill="white"/>
<path d="M1813.5 725.153V732.99H1821.97V767.349H1831.78V725.153H1813.5Z" fill="white"/>
<path d="M1837.2 725.153V732.99H1845.67V767.349H1855.48V725.153H1837.2Z" fill="white"/>
<path d="M1901.63 750.531H1894.73V742.634H1885.47V750.531H1874.09L1892.61 725.153H1882.32L1862.35 751.917V758.488H1885.17V767.349H1894.73V758.488H1901.63V750.531Z" fill="white"/>
<path d="M1901.09 725.153V732.99H1909.56V767.349H1919.36V725.153H1901.09Z" fill="white"/>
<path d="M1955.71 745.166C1958.85 743.237 1960.67 740.284 1960.67 736.486C1960.67 729.072 1954.01 724.43 1944.27 724.43C1934.65 724.43 1927.99 729.072 1927.99 736.486C1927.99 740.284 1929.75 743.237 1932.89 745.166C1928.84 747.216 1926.48 750.591 1926.48 755.112C1926.48 763.069 1933.56 768.072 1944.27 768.072C1955.04 768.072 1962.18 763.069 1962.18 755.112C1962.18 750.591 1959.82 747.216 1955.71 745.166ZM1944.27 731.603C1948.26 731.603 1950.93 733.593 1950.93 736.908C1950.93 740.103 1948.32 742.092 1944.27 742.092C1940.28 742.092 1937.73 740.103 1937.73 736.908C1937.73 733.593 1940.34 731.603 1944.27 731.603ZM1944.27 760.899C1939.43 760.899 1936.4 758.548 1936.4 754.811C1936.4 751.073 1939.43 748.783 1944.27 748.783C1949.17 748.783 1952.26 751.073 1952.26 754.811C1952.26 758.548 1949.17 760.899 1944.27 760.899Z" fill="white"/>
<path d="M1769.21 692H1985.43V708.326H1769.21V692Z" fill="white"/>
<path d="M1769.21 783.674H1985.43V800H1769.21V783.674Z" fill="white"/>
<path d="M1985.43 800V692H2001.82V800H1985.43Z" fill="white"/>
<path d="M1752.82 800V692H1769.21V800H1752.82Z" fill="white"/>
<path d="M-95.7312 445.153V452.99H-87.2589V504.302H-77.4552V445.153H-95.7312Z" fill="white"/>
<path d="M-72.0328 445.153V452.99H-63.5605V487.349H-53.7568V445.153H-72.0328Z" fill="white"/>
<path d="M-48.3345 445.153V452.99H-39.8622V487.349H-30.0585V445.153H-48.3345Z" fill="white"/>
<path d="M16.0914 470.531H9.19255V462.634H-0.0664649V470.531H-11.4436L7.07448 445.153H-3.21331L-23.1837 471.917V478.488H-0.369044V487.349H9.19255V478.488H16.0914V470.531Z" fill="white"/>
<path d="M15.5506 445.153V452.99H24.0229V487.349H33.8265V445.153H15.5506Z" fill="white"/>
<path d="M70.1728 465.166C73.3197 463.237 75.1352 460.284 75.1352 456.486C75.1352 449.072 68.4783 444.43 58.7352 444.43C49.1131 444.43 42.4563 449.072 42.4563 456.486C42.4563 460.284 44.2113 463.237 47.3581 465.166C43.3035 467.216 40.9434 470.591 40.9434 475.112C40.9434 483.069 48.0238 488.072 58.7352 488.072C69.5071 488.072 76.6481 483.069 76.6481 475.112C76.6481 470.591 74.2879 467.216 70.1728 465.166ZM58.7352 451.603C62.7293 451.603 65.392 453.593 65.392 456.908C65.392 460.103 62.7898 462.092 58.7352 462.092C54.7411 462.092 52.1994 460.103 52.1994 456.908C52.1994 453.593 54.8016 451.603 58.7352 451.603ZM58.7352 480.899C53.8939 480.899 50.8681 478.548 50.8681 474.811C50.8681 471.073 53.8939 468.783 58.7352 468.783C63.637 468.783 66.7234 471.073 66.7234 474.811C66.7234 478.548 63.637 480.899 58.7352 480.899Z" fill="white"/>
<path d="M-116.327 412H99.8933V428.326H-116.327V412Z" fill="white"/>
<path d="M-116.327 503.674H99.8933V520H-116.327V503.674Z" fill="white"/>
<path d="M99.8933 520V412H116.283V520H99.8933Z" fill="white"/>
<path d="M-132.717 520V412H-116.327V520H-132.717Z" fill="white"/>
<path d="M212.269 445.153V452.99H220.741V504.302H230.545V445.153H212.269Z" fill="white"/>
<path d="M235.967 445.153V452.99H244.439V487.349H254.243V445.153H235.967Z" fill="white"/>
<path d="M259.666 445.153V452.99H268.138V487.349H277.941V445.153H259.666Z" fill="white"/>
<path d="M324.091 470.531H317.193V462.634H307.934V470.531H296.556L315.074 445.153H304.787L284.816 471.917V478.488H307.631V487.349H317.193V478.488H324.091V470.531Z" fill="white"/>
<path d="M323.551 445.153V452.99H332.023V487.349H341.827V445.153H323.551Z" fill="white"/>
<path d="M378.173 465.166C381.32 463.237 383.135 460.284 383.135 456.486C383.135 449.072 376.478 444.43 366.735 444.43C357.113 444.43 350.456 449.072 350.456 456.486C350.456 460.284 352.211 463.237 355.358 465.166C351.304 467.216 348.943 470.591 348.943 475.112C348.943 483.069 356.024 488.072 366.735 488.072C377.507 488.072 384.648 483.069 384.648 475.112C384.648 470.591 382.288 467.216 378.173 465.166ZM366.735 451.603C370.729 451.603 373.392 453.593 373.392 456.908C373.392 460.103 370.79 462.092 366.735 462.092C362.741 462.092 360.199 460.103 360.199 456.908C360.199 453.593 362.802 451.603 366.735 451.603ZM366.735 480.899C361.894 480.899 358.868 478.548 358.868 474.811C358.868 471.073 361.894 468.783 366.735 468.783C371.637 468.783 374.723 471.073 374.723 474.811C374.723 478.548 371.637 480.899 366.735 480.899Z" fill="white"/>
<path d="M191.673 412H407.893V428.326H191.673V412Z" fill="white"/>
<path d="M191.673 503.674H407.893V520H191.673V503.674Z" fill="white"/>
<path d="M407.893 520V412H424.283V520H407.893Z" fill="white"/>
<path d="M175.283 520V412H191.673V520H175.283Z" fill="white"/>
<path d="M520.269 445.153V452.99H528.741V504.302H538.545V445.153H520.269Z" fill="white"/>
<path d="M543.967 445.153V452.99H552.439V487.349H562.243V445.153H543.967Z" fill="white"/>
<path d="M567.666 445.153V452.99H576.138V487.349H585.941V445.153H567.666Z" fill="white"/>
<path d="M632.091 470.531H625.193V462.634H615.934V470.531H604.556L623.074 445.153H612.787L592.816 471.917V478.488H615.631V487.349H625.193V478.488H632.091V470.531Z" fill="white"/>
<path d="M631.551 445.153V452.99H640.023V487.349H649.827V445.153H631.551Z" fill="white"/>
<path d="M686.173 465.166C689.32 463.237 691.135 460.284 691.135 456.486C691.135 449.072 684.478 444.43 674.735 444.43C665.113 444.43 658.456 449.072 658.456 456.486C658.456 460.284 660.211 463.237 663.358 465.166C659.304 467.216 656.943 470.591 656.943 475.112C656.943 483.069 664.024 488.072 674.735 488.072C685.507 488.072 692.648 483.069 692.648 475.112C692.648 470.591 690.288 467.216 686.173 465.166ZM674.735 451.603C678.729 451.603 681.392 453.593 681.392 456.908C681.392 460.103 678.79 462.092 674.735 462.092C670.741 462.092 668.199 460.103 668.199 456.908C668.199 453.593 670.802 451.603 674.735 451.603ZM674.735 480.899C669.894 480.899 666.868 478.548 666.868 474.811C666.868 471.073 669.894 468.783 674.735 468.783C679.637 468.783 682.723 471.073 682.723 474.811C682.723 478.548 679.637 480.899 674.735 480.899Z" fill="white"/>
<path d="M499.673 412H715.893V428.326H499.673V412Z" fill="white"/>
<path d="M499.673 503.674H715.893V520H499.673V503.674Z" fill="white"/>
<path d="M715.893 520V412H732.283V520H715.893Z" fill="white"/>
<path d="M483.283 520V412H499.673V520H483.283Z" fill="white"/>
<path d="M828.269 445.153V452.99H836.741V504.302H846.545V445.153H828.269Z" fill="white"/>
<path d="M851.967 445.153V452.99H860.439V487.349H870.243V445.153H851.967Z" fill="white"/>
<path d="M875.666 445.153V452.99H884.138V487.349H893.941V445.153H875.666Z" fill="white"/>
<path d="M940.091 470.531H933.193V462.634H923.934V470.531H912.556L931.074 445.153H920.787L900.816 471.917V478.488H923.631V487.349H933.193V478.488H940.091V470.531Z" fill="white"/>
<path d="M939.551 445.153V452.99H948.023V487.349H957.827V445.153H939.551Z" fill="white"/>
<path d="M994.173 465.166C997.32 463.237 999.135 460.284 999.135 456.486C999.135 449.072 992.478 444.43 982.735 444.43C973.113 444.43 966.456 449.072 966.456 456.486C966.456 460.284 968.211 463.237 971.358 465.166C967.304 467.216 964.943 470.591 964.943 475.112C964.943 483.069 972.024 488.072 982.735 488.072C993.507 488.072 1000.65 483.069 1000.65 475.112C1000.65 470.591 998.288 467.216 994.173 465.166ZM982.735 451.603C986.729 451.603 989.392 453.593 989.392 456.908C989.392 460.103 986.79 462.092 982.735 462.092C978.741 462.092 976.199 460.103 976.199 456.908C976.199 453.593 978.802 451.603 982.735 451.603ZM982.735 480.899C977.894 480.899 974.868 478.548 974.868 474.811C974.868 471.073 977.894 468.783 982.735 468.783C987.637 468.783 990.723 471.073 990.723 474.811C990.723 478.548 987.637 480.899 982.735 480.899Z" fill="white"/>
<path d="M807.673 412H1023.89V428.326H807.673V412Z" fill="white"/>
<path d="M807.673 503.674H1023.89V520H807.673V503.674Z" fill="white"/>
<path d="M1023.89 520V412H1040.28V520H1023.89Z" fill="white"/>
<path d="M791.283 520V412H807.673V520H791.283Z" fill="white"/>
<path d="M1136.27 445.153V452.99H1144.74V504.302H1154.54V445.153H1136.27Z" fill="white"/>
<path d="M1159.97 445.153V452.99H1168.44V487.349H1178.24V445.153H1159.97Z" fill="white"/>
<path d="M1183.67 445.153V452.99H1192.14V487.349H1201.94V445.153H1183.67Z" fill="white"/>
<path d="M1248.09 470.531H1241.19V462.634H1231.93V470.531H1220.56L1239.07 445.153H1228.79L1208.82 471.917V478.488H1231.63V487.349H1241.19V478.488H1248.09V470.531Z" fill="white"/>
<path d="M1247.55 445.153V452.99H1256.02V487.349H1265.83V445.153H1247.55Z" fill="white"/>
<path d="M1302.17 465.166C1305.32 463.237 1307.14 460.284 1307.14 456.486C1307.14 449.072 1300.48 444.43 1290.74 444.43C1281.11 444.43 1274.46 449.072 1274.46 456.486C1274.46 460.284 1276.21 463.237 1279.36 465.166C1275.3 467.216 1272.94 470.591 1272.94 475.112C1272.94 483.069 1280.02 488.072 1290.74 488.072C1301.51 488.072 1308.65 483.069 1308.65 475.112C1308.65 470.591 1306.29 467.216 1302.17 465.166ZM1290.74 451.603C1294.73 451.603 1297.39 453.593 1297.39 456.908C1297.39 460.103 1294.79 462.092 1290.74 462.092C1286.74 462.092 1284.2 460.103 1284.2 456.908C1284.2 453.593 1286.8 451.603 1290.74 451.603ZM1290.74 480.899C1285.89 480.899 1282.87 478.548 1282.87 474.811C1282.87 471.073 1285.89 468.783 1290.74 468.783C1295.64 468.783 1298.72 471.073 1298.72 474.811C1298.72 478.548 1295.64 480.899 1290.74 480.899Z" fill="white"/>
<path d="M1115.67 412H1331.89V428.326H1115.67V412Z" fill="white"/>
<path d="M1115.67 503.674H1331.89V520H1115.67V503.674Z" fill="white"/>
<path d="M1331.89 520V412H1348.28V520H1331.89Z" fill="white"/>
<path d="M1099.28 520V412H1115.67V520H1099.28Z" fill="white"/>
<path d="M1444.27 445.153V452.99H1452.74V504.302H1462.54V445.153H1444.27Z" fill="white"/>
<path d="M1467.97 445.153V452.99H1476.44V487.349H1486.24V445.153H1467.97Z" fill="white"/>
<path d="M1491.67 445.153V452.99H1500.14V487.349H1509.94V445.153H1491.67Z" fill="white"/>
<path d="M1556.09 470.531H1549.19V462.634H1539.93V470.531H1528.56L1547.07 445.153H1536.79L1516.82 471.917V478.488H1539.63V487.349H1549.19V478.488H1556.09V470.531Z" fill="white"/>
<path d="M1555.55 445.153V452.99H1564.02V487.349H1573.83V445.153H1555.55Z" fill="white"/>
<path d="M1610.17 465.166C1613.32 463.237 1615.14 460.284 1615.14 456.486C1615.14 449.072 1608.48 444.43 1598.74 444.43C1589.11 444.43 1582.46 449.072 1582.46 456.486C1582.46 460.284 1584.21 463.237 1587.36 465.166C1583.3 467.216 1580.94 470.591 1580.94 475.112C1580.94 483.069 1588.02 488.072 1598.74 488.072C1609.51 488.072 1616.65 483.069 1616.65 475.112C1616.65 470.591 1614.29 467.216 1610.17 465.166ZM1598.74 451.603C1602.73 451.603 1605.39 453.593 1605.39 456.908C1605.39 460.103 1602.79 462.092 1598.74 462.092C1594.74 462.092 1592.2 460.103 1592.2 456.908C1592.2 453.593 1594.8 451.603 1598.74 451.603ZM1598.74 480.899C1593.89 480.899 1590.87 478.548 1590.87 474.811C1590.87 471.073 1593.89 468.783 1598.74 468.783C1603.64 468.783 1606.72 471.073 1606.72 474.811C1606.72 478.548 1603.64 480.899 1598.74 480.899Z" fill="white"/>
<path d="M1423.67 412H1639.89V428.326H1423.67V412Z" fill="white"/>
<path d="M1423.67 503.674H1639.89V520H1423.67V503.674Z" fill="white"/>
<path d="M1639.89 520V412H1656.28V520H1639.89Z" fill="white"/>
<path d="M1407.28 520V412H1423.67V520H1407.28Z" fill="white"/>
<path d="M1752.27 445.153V452.99H1760.74V504.302H1770.54V445.153H1752.27Z" fill="white"/>
<path d="M1775.97 445.153V452.99H1784.44V487.349H1794.24V445.153H1775.97Z" fill="white"/>
<path d="M1799.67 445.153V452.99H1808.14V487.349H1817.94V445.153H1799.67Z" fill="white"/>
<path d="M1864.09 470.531H1857.19V462.634H1847.93V470.531H1836.56L1855.07 445.153H1844.79L1824.82 471.917V478.488H1847.63V487.349H1857.19V478.488H1864.09V470.531Z" fill="white"/>
<path d="M1863.55 445.153V452.99H1872.02V487.349H1881.83V445.153H1863.55Z" fill="white"/>
<path d="M1918.17 465.166C1921.32 463.237 1923.14 460.284 1923.14 456.486C1923.14 449.072 1916.48 444.43 1906.74 444.43C1897.11 444.43 1890.46 449.072 1890.46 456.486C1890.46 460.284 1892.21 463.237 1895.36 465.166C1891.3 467.216 1888.94 470.591 1888.94 475.112C1888.94 483.069 1896.02 488.072 1906.74 488.072C1917.51 488.072 1924.65 483.069 1924.65 475.112C1924.65 470.591 1922.29 467.216 1918.17 465.166ZM1906.74 451.603C1910.73 451.603 1913.39 453.593 1913.39 456.908C1913.39 460.103 1910.79 462.092 1906.74 462.092C1902.74 462.092 1900.2 460.103 1900.2 456.908C1900.2 453.593 1902.8 451.603 1906.74 451.603ZM1906.74 480.899C1901.89 480.899 1898.87 478.548 1898.87 474.811C1898.87 471.073 1901.89 468.783 1906.74 468.783C1911.64 468.783 1914.72 471.073 1914.72 474.811C1914.72 478.548 1911.64 480.899 1906.74 480.899Z" fill="white"/>
<path d="M1731.67 412H1947.89V428.326H1731.67V412Z" fill="white"/>
<path d="M1731.67 503.674H1947.89V520H1731.67V503.674Z" fill="white"/>
<path d="M1947.89 520V412H1964.28V520H1947.89Z" fill="white"/>
<path d="M1715.28 520V412H1731.67V520H1715.28Z" fill="white"/>
<path d="M-58.1965 1005.15V1012.99H-49.7242V1064.3H-39.9205V1005.15H-58.1965Z" fill="white"/>
<path d="M-34.4982 1005.15V1012.99H-26.0258V1047.35H-16.2222V1005.15H-34.4982Z" fill="white"/>
<path d="M-10.7998 1005.15V1012.99H-2.32751V1047.35H7.47616V1005.15H-10.7998Z" fill="white"/>
<path d="M53.6261 1030.53H46.7272V1022.63H37.4682V1030.53H26.0911L44.6091 1005.15H34.3214L14.3509 1031.92V1038.49H37.1656V1047.35H46.7272V1038.49H53.6261V1030.53Z" fill="white"/>
<path d="M53.0852 1005.15V1012.99H61.5575V1047.35H71.3612V1005.15H53.0852Z" fill="white"/>
<path d="M107.707 1025.17C110.854 1023.24 112.67 1020.28 112.67 1016.49C112.67 1009.07 106.013 1004.43 96.2699 1004.43C86.6477 1004.43 79.991 1009.07 79.991 1016.49C79.991 1020.28 81.7459 1023.24 84.8928 1025.17C80.8382 1027.22 78.478 1030.59 78.478 1035.11C78.478 1043.07 85.5584 1048.07 96.2699 1048.07C107.042 1048.07 114.183 1043.07 114.183 1035.11C114.183 1030.59 111.823 1027.22 107.707 1025.17ZM96.2699 1011.6C100.264 1011.6 102.927 1013.59 102.927 1016.91C102.927 1020.1 100.324 1022.09 96.2699 1022.09C92.2758 1022.09 89.7341 1020.1 89.7341 1016.91C89.7341 1013.59 92.3363 1011.6 96.2699 1011.6ZM96.2699 1040.9C91.4285 1040.9 88.4027 1038.55 88.4027 1034.81C88.4027 1031.07 91.4285 1028.78 96.2699 1028.78C101.172 1028.78 104.258 1031.07 104.258 1034.81C104.258 1038.55 101.172 1040.9 96.2699 1040.9Z" fill="white"/>
<path d="M-78.7923 972H137.428V988.326H-78.7923V972Z" fill="white"/>
<path d="M-78.7923 1063.67H137.428V1080H-78.7923V1063.67Z" fill="white"/>
<path d="M137.428 1080V972H153.818V1080H137.428Z" fill="white"/>
<path d="M-95.1821 1080V972H-78.7923V1080H-95.1821Z" fill="white"/>
<path d="M249.804 1005.15V1012.99H258.276V1064.3H268.079V1005.15H249.804Z" fill="white"/>
<path d="M273.502 1005.15V1012.99H281.974V1047.35H291.778V1005.15H273.502Z" fill="white"/>
<path d="M297.2 1005.15V1012.99H305.672V1047.35H315.476V1005.15H297.2Z" fill="white"/>
<path d="M361.626 1030.53H354.727V1022.63H345.468V1030.53H334.091L352.609 1005.15H342.321L322.351 1031.92V1038.49H345.166V1047.35H354.727V1038.49H361.626V1030.53Z" fill="white"/>
<path d="M361.085 1005.15V1012.99H369.558V1047.35H379.361V1005.15H361.085Z" fill="white"/>
<path d="M415.707 1025.17C418.854 1023.24 420.67 1020.28 420.67 1016.49C420.67 1009.07 414.013 1004.43 404.27 1004.43C394.648 1004.43 387.991 1009.07 387.991 1016.49C387.991 1020.28 389.746 1023.24 392.893 1025.17C388.838 1027.22 386.478 1030.59 386.478 1035.11C386.478 1043.07 393.558 1048.07 404.27 1048.07C415.042 1048.07 422.183 1043.07 422.183 1035.11C422.183 1030.59 419.823 1027.22 415.707 1025.17ZM404.27 1011.6C408.264 1011.6 410.927 1013.59 410.927 1016.91C410.927 1020.1 408.324 1022.09 404.27 1022.09C400.276 1022.09 397.734 1020.1 397.734 1016.91C397.734 1013.59 400.336 1011.6 404.27 1011.6ZM404.27 1040.9C399.429 1040.9 396.403 1038.55 396.403 1034.81C396.403 1031.07 399.429 1028.78 404.27 1028.78C409.172 1028.78 412.258 1031.07 412.258 1034.81C412.258 1038.55 409.172 1040.9 404.27 1040.9Z" fill="white"/>
<path d="M229.208 972H445.428V988.326H229.208V972Z" fill="white"/>
<path d="M229.208 1063.67H445.428V1080H229.208V1063.67Z" fill="white"/>
<path d="M445.428 1080V972H461.818V1080H445.428Z" fill="white"/>
<path d="M212.818 1080V972H229.208V1080H212.818Z" fill="white"/>
<path d="M557.804 1005.15V1012.99H566.276V1064.3H576.079V1005.15H557.804Z" fill="white"/>
<path d="M581.502 1005.15V1012.99H589.974V1047.35H599.778V1005.15H581.502Z" fill="white"/>
<path d="M605.2 1005.15V1012.99H613.672V1047.35H623.476V1005.15H605.2Z" fill="white"/>
<path d="M669.626 1030.53H662.727V1022.63H653.468V1030.53H642.091L660.609 1005.15H650.321L630.351 1031.92V1038.49H653.166V1047.35H662.727V1038.49H669.626V1030.53Z" fill="white"/>
<path d="M669.085 1005.15V1012.99H677.558V1047.35H687.361V1005.15H669.085Z" fill="white"/>
<path d="M723.707 1025.17C726.854 1023.24 728.67 1020.28 728.67 1016.49C728.67 1009.07 722.013 1004.43 712.27 1004.43C702.648 1004.43 695.991 1009.07 695.991 1016.49C695.991 1020.28 697.746 1023.24 700.893 1025.17C696.838 1027.22 694.478 1030.59 694.478 1035.11C694.478 1043.07 701.558 1048.07 712.27 1048.07C723.042 1048.07 730.183 1043.07 730.183 1035.11C730.183 1030.59 727.823 1027.22 723.707 1025.17ZM712.27 1011.6C716.264 1011.6 718.927 1013.59 718.927 1016.91C718.927 1020.1 716.324 1022.09 712.27 1022.09C708.276 1022.09 705.734 1020.1 705.734 1016.91C705.734 1013.59 708.336 1011.6 712.27 1011.6ZM712.27 1040.9C707.429 1040.9 704.403 1038.55 704.403 1034.81C704.403 1031.07 707.429 1028.78 712.27 1028.78C717.172 1028.78 720.258 1031.07 720.258 1034.81C720.258 1038.55 717.172 1040.9 712.27 1040.9Z" fill="white"/>
<path d="M537.208 972H753.428V988.326H537.208V972Z" fill="white"/>
<path d="M537.208 1063.67H753.428V1080H537.208V1063.67Z" fill="white"/>
<path d="M753.428 1080V972H769.818V1080H753.428Z" fill="white"/>
<path d="M520.818 1080V972H537.208V1080H520.818Z" fill="white"/>
<path d="M865.804 1005.15V1012.99H874.276V1064.3H884.079V1005.15H865.804Z" fill="white"/>
<path d="M889.502 1005.15V1012.99H897.974V1047.35H907.778V1005.15H889.502Z" fill="white"/>
<path d="M913.2 1005.15V1012.99H921.672V1047.35H931.476V1005.15H913.2Z" fill="white"/>
<path d="M977.626 1030.53H970.727V1022.63H961.468V1030.53H950.091L968.609 1005.15H958.321L938.351 1031.92V1038.49H961.166V1047.35H970.727V1038.49H977.626V1030.53Z" fill="white"/>
<path d="M977.085 1005.15V1012.99H985.558V1047.35H995.361V1005.15H977.085Z" fill="white"/>
<path d="M1031.71 1025.17C1034.85 1023.24 1036.67 1020.28 1036.67 1016.49C1036.67 1009.07 1030.01 1004.43 1020.27 1004.43C1010.65 1004.43 1003.99 1009.07 1003.99 1016.49C1003.99 1020.28 1005.75 1023.24 1008.89 1025.17C1004.84 1027.22 1002.48 1030.59 1002.48 1035.11C1002.48 1043.07 1009.56 1048.07 1020.27 1048.07C1031.04 1048.07 1038.18 1043.07 1038.18 1035.11C1038.18 1030.59 1035.82 1027.22 1031.71 1025.17ZM1020.27 1011.6C1024.26 1011.6 1026.93 1013.59 1026.93 1016.91C1026.93 1020.1 1024.32 1022.09 1020.27 1022.09C1016.28 1022.09 1013.73 1020.1 1013.73 1016.91C1013.73 1013.59 1016.34 1011.6 1020.27 1011.6ZM1020.27 1040.9C1015.43 1040.9 1012.4 1038.55 1012.4 1034.81C1012.4 1031.07 1015.43 1028.78 1020.27 1028.78C1025.17 1028.78 1028.26 1031.07 1028.26 1034.81C1028.26 1038.55 1025.17 1040.9 1020.27 1040.9Z" fill="white"/>
<path d="M845.208 972H1061.43V988.326H845.208V972Z" fill="white"/>
<path d="M845.208 1063.67H1061.43V1080H845.208V1063.67Z" fill="white"/>
<path d="M1061.43 1080V972H1077.82V1080H1061.43Z" fill="white"/>
<path d="M828.818 1080V972H845.208V1080H828.818Z" fill="white"/>
<path d="M1173.8 1005.15V1012.99H1182.28V1064.3H1192.08V1005.15H1173.8Z" fill="white"/>
<path d="M1197.5 1005.15V1012.99H1205.97V1047.35H1215.78V1005.15H1197.5Z" fill="white"/>
<path d="M1221.2 1005.15V1012.99H1229.67V1047.35H1239.48V1005.15H1221.2Z" fill="white"/>
<path d="M1285.63 1030.53H1278.73V1022.63H1269.47V1030.53H1258.09L1276.61 1005.15H1266.32L1246.35 1031.92V1038.49H1269.17V1047.35H1278.73V1038.49H1285.63V1030.53Z" fill="white"/>
<path d="M1285.09 1005.15V1012.99H1293.56V1047.35H1303.36V1005.15H1285.09Z" fill="white"/>
<path d="M1339.71 1025.17C1342.85 1023.24 1344.67 1020.28 1344.67 1016.49C1344.67 1009.07 1338.01 1004.43 1328.27 1004.43C1318.65 1004.43 1311.99 1009.07 1311.99 1016.49C1311.99 1020.28 1313.75 1023.24 1316.89 1025.17C1312.84 1027.22 1310.48 1030.59 1310.48 1035.11C1310.48 1043.07 1317.56 1048.07 1328.27 1048.07C1339.04 1048.07 1346.18 1043.07 1346.18 1035.11C1346.18 1030.59 1343.82 1027.22 1339.71 1025.17ZM1328.27 1011.6C1332.26 1011.6 1334.93 1013.59 1334.93 1016.91C1334.93 1020.1 1332.32 1022.09 1328.27 1022.09C1324.28 1022.09 1321.73 1020.1 1321.73 1016.91C1321.73 1013.59 1324.34 1011.6 1328.27 1011.6ZM1328.27 1040.9C1323.43 1040.9 1320.4 1038.55 1320.4 1034.81C1320.4 1031.07 1323.43 1028.78 1328.27 1028.78C1333.17 1028.78 1336.26 1031.07 1336.26 1034.81C1336.26 1038.55 1333.17 1040.9 1328.27 1040.9Z" fill="white"/>
<path d="M1153.21 972H1369.43V988.326H1153.21V972Z" fill="white"/>
<path d="M1153.21 1063.67H1369.43V1080H1153.21V1063.67Z" fill="white"/>
<path d="M1369.43 1080V972H1385.82V1080H1369.43Z" fill="white"/>
<path d="M1136.82 1080V972H1153.21V1080H1136.82Z" fill="white"/>
<path d="M1481.8 1005.15V1012.99H1490.28V1064.3H1500.08V1005.15H1481.8Z" fill="white"/>
<path d="M1505.5 1005.15V1012.99H1513.97V1047.35H1523.78V1005.15H1505.5Z" fill="white"/>
<path d="M1529.2 1005.15V1012.99H1537.67V1047.35H1547.48V1005.15H1529.2Z" fill="white"/>
<path d="M1593.63 1030.53H1586.73V1022.63H1577.47V1030.53H1566.09L1584.61 1005.15H1574.32L1554.35 1031.92V1038.49H1577.17V1047.35H1586.73V1038.49H1593.63V1030.53Z" fill="white"/>
<path d="M1593.09 1005.15V1012.99H1601.56V1047.35H1611.36V1005.15H1593.09Z" fill="white"/>
<path d="M1647.71 1025.17C1650.85 1023.24 1652.67 1020.28 1652.67 1016.49C1652.67 1009.07 1646.01 1004.43 1636.27 1004.43C1626.65 1004.43 1619.99 1009.07 1619.99 1016.49C1619.99 1020.28 1621.75 1023.24 1624.89 1025.17C1620.84 1027.22 1618.48 1030.59 1618.48 1035.11C1618.48 1043.07 1625.56 1048.07 1636.27 1048.07C1647.04 1048.07 1654.18 1043.07 1654.18 1035.11C1654.18 1030.59 1651.82 1027.22 1647.71 1025.17ZM1636.27 1011.6C1640.26 1011.6 1642.93 1013.59 1642.93 1016.91C1642.93 1020.1 1640.32 1022.09 1636.27 1022.09C1632.28 1022.09 1629.73 1020.1 1629.73 1016.91C1629.73 1013.59 1632.34 1011.6 1636.27 1011.6ZM1636.27 1040.9C1631.43 1040.9 1628.4 1038.55 1628.4 1034.81C1628.4 1031.07 1631.43 1028.78 1636.27 1028.78C1641.17 1028.78 1644.26 1031.07 1644.26 1034.81C1644.26 1038.55 1641.17 1040.9 1636.27 1040.9Z" fill="white"/>
<path d="M1461.21 972H1677.43V988.326H1461.21V972Z" fill="white"/>
<path d="M1461.21 1063.67H1677.43V1080H1461.21V1063.67Z" fill="white"/>
<path d="M1677.43 1080V972H1693.82V1080H1677.43Z" fill="white"/>
<path d="M1444.82 1080V972H1461.21V1080H1444.82Z" fill="white"/>
<path d="M1789.8 1005.15V1012.99H1798.28V1064.3H1808.08V1005.15H1789.8Z" fill="white"/>
<path d="M1813.5 1005.15V1012.99H1821.97V1047.35H1831.78V1005.15H1813.5Z" fill="white"/>
<path d="M1837.2 1005.15V1012.99H1845.67V1047.35H1855.48V1005.15H1837.2Z" fill="white"/>
<path d="M1901.63 1030.53H1894.73V1022.63H1885.47V1030.53H1874.09L1892.61 1005.15H1882.32L1862.35 1031.92V1038.49H1885.17V1047.35H1894.73V1038.49H1901.63V1030.53Z" fill="white"/>
<path d="M1901.09 1005.15V1012.99H1909.56V1047.35H1919.36V1005.15H1901.09Z" fill="white"/>
<path d="M1955.71 1025.17C1958.85 1023.24 1960.67 1020.28 1960.67 1016.49C1960.67 1009.07 1954.01 1004.43 1944.27 1004.43C1934.65 1004.43 1927.99 1009.07 1927.99 1016.49C1927.99 1020.28 1929.75 1023.24 1932.89 1025.17C1928.84 1027.22 1926.48 1030.59 1926.48 1035.11C1926.48 1043.07 1933.56 1048.07 1944.27 1048.07C1955.04 1048.07 1962.18 1043.07 1962.18 1035.11C1962.18 1030.59 1959.82 1027.22 1955.71 1025.17ZM1944.27 1011.6C1948.26 1011.6 1950.93 1013.59 1950.93 1016.91C1950.93 1020.1 1948.32 1022.09 1944.27 1022.09C1940.28 1022.09 1937.73 1020.1 1937.73 1016.91C1937.73 1013.59 1940.34 1011.6 1944.27 1011.6ZM1944.27 1040.9C1939.43 1040.9 1936.4 1038.55 1936.4 1034.81C1936.4 1031.07 1939.43 1028.78 1944.27 1028.78C1949.17 1028.78 1952.26 1031.07 1952.26 1034.81C1952.26 1038.55 1949.17 1040.9 1944.27 1040.9Z" fill="white"/>
<path d="M1769.21 972H1985.43V988.326H1769.21V972Z" fill="white"/>
<path d="M1769.21 1063.67H1985.43V1080H1769.21V1063.67Z" fill="white"/>
<path d="M1985.43 1080V972H2001.82V1080H1985.43Z" fill="white"/>
<path d="M1752.82 1080V972H1769.21V1080H1752.82Z" fill="white"/>
</g>
</g>
</g>
<defs>
<filter id="filter0_n_721_1205" x="0" y="0" width="1920" height="1080" filterUnits="userSpaceOnUse" color-interpolation-filters="sRGB">
<feFlood flood-opacity="0" result="BackgroundImageFix"/>
<feBlend mode="normal" in="SourceGraphic" in2="BackgroundImageFix" result="shape"/>
<feTurbulence type="fractalNoise" baseFrequency="0.40000000596046448 0.40000000596046448" stitchTiles="stitch" numOctaves="3" result="noise" seed="9050" />
<feColorMatrix in="noise" type="luminanceToAlpha" result="alphaNoise" />
<feComponentTransfer in="alphaNoise" result="coloredNoise1">
<feFuncA type="discrete" tableValues="1 1 1 1 1 1 1 1 1 1 1 1 1 1 1 1 1 1 1 1 1 1 1 1 1 1 1 1 1 1 1 1 1 1 1 1 1 1 1 1 1 1 1 1 1 1 1 1 1 1 1 0 0 0 0 0 0 0 0 0 0 0 0 0 0 0 0 0 0 0 0 0 0 0 0 0 0 0 0 0 0 0 0 0 0 0 0 0 0 0 0 0 0 0 0 0 0 0 0 0 "/>
</feComponentTransfer>
<feComposite operator="in" in2="shape" in="coloredNoise1" result="noise1Clipped" />
<feFlood flood-color="rgba(0, 0, 0, 0.16)" result="color1Flood" />
<feComposite operator="in" in2="noise1Clipped" in="color1Flood" result="color1" />
<feMerge result="effect1_noise_721_1205">
<feMergeNode in="shape" />
<feMergeNode in="color1" />
</feMerge>
</filter>
<clipPath id="clip0_721_1205">
<rect width="1920" height="1080" fill="white"/>
</clipPath>
</defs>
</svg>
