<svg width="671" height="335" viewBox="0 0 671 335" fill="none" xmlns="http://www.w3.org/2000/svg">
<g filter="url(#filter0_n_683_1810)">
<rect x="109.5" y="77.5" width="452" height="180" rx="89.5" fill="#443182" stroke="#20095E" stroke-width="21"/>
<path d="M232.699 191V146.2H243.131L261.691 176.664H256.187L274.235 146.2H284.667L284.795 191H273.147L273.019 163.928H275.003L261.499 186.584H255.867L241.979 163.928H244.411V191H232.699ZM293.761 191V146.2H306.433V191H293.761ZM331.193 191.896C327.523 191.896 323.982 191.448 320.569 190.552C317.198 189.613 314.446 188.419 312.313 186.968L316.473 177.624C318.478 178.904 320.782 179.971 323.385 180.824C326.03 181.635 328.654 182.04 331.257 182.04C333.006 182.04 334.414 181.891 335.481 181.592C336.547 181.251 337.315 180.824 337.785 180.312C338.297 179.757 338.553 179.117 338.553 178.392C338.553 177.368 338.083 176.557 337.145 175.96C336.206 175.363 334.99 174.872 333.497 174.488C332.003 174.104 330.339 173.72 328.505 173.336C326.713 172.952 324.899 172.461 323.065 171.864C321.273 171.267 319.63 170.499 318.137 169.56C316.643 168.579 315.427 167.32 314.489 165.784C313.55 164.205 313.081 162.221 313.081 159.832C313.081 157.144 313.806 154.712 315.257 152.536C316.75 150.36 318.969 148.611 321.913 147.288C324.857 145.965 328.526 145.304 332.921 145.304C335.865 145.304 338.745 145.645 341.561 146.328C344.419 146.968 346.958 147.928 349.177 149.208L345.273 158.616C343.139 157.464 341.027 156.611 338.937 156.056C336.846 155.459 334.819 155.16 332.857 155.16C331.107 155.16 329.699 155.352 328.633 155.736C327.566 156.077 326.798 156.547 326.329 157.144C325.859 157.741 325.625 158.424 325.625 159.192C325.625 160.173 326.073 160.963 326.969 161.56C327.907 162.115 329.123 162.584 330.617 162.968C332.153 163.309 333.817 163.672 335.609 164.056C337.443 164.44 339.257 164.931 341.049 165.528C342.883 166.083 344.547 166.851 346.041 167.832C347.534 168.771 348.729 170.029 349.625 171.608C350.563 173.144 351.033 175.085 351.033 177.432C351.033 180.035 350.286 182.445 348.793 184.664C347.342 186.84 345.145 188.589 342.201 189.912C339.299 191.235 335.63 191.896 331.193 191.896ZM356.886 191V146.2H392.022V155.992H369.43V181.208H392.854V191H356.886ZM368.534 173.016V163.544H389.334V173.016H368.534ZM399.886 191V146.2H419.918C426.446 146.2 431.46 147.693 434.958 150.68C438.5 153.624 440.27 157.656 440.27 162.776C440.27 166.147 439.46 169.069 437.838 171.544C436.217 173.976 433.913 175.853 430.926 177.176C427.982 178.456 424.462 179.096 420.366 179.096H406.926L412.558 173.784V191H399.886ZM427.598 191L416.462 174.68H429.966L441.166 191H427.598ZM412.558 175.128L406.926 169.304H419.598C422.244 169.304 424.206 168.728 425.486 167.576C426.809 166.424 427.47 164.824 427.47 162.776C427.47 160.685 426.809 159.064 425.486 157.912C424.206 156.76 422.244 156.184 419.598 156.184H406.926L412.558 150.36V175.128Z" fill="white"/>
</g>
<defs>
<filter id="filter0_n_683_1810" x="0" y="0" width="671" height="335" filterUnits="userSpaceOnUse" color-interpolation-filters="sRGB">
<feFlood flood-opacity="0" result="BackgroundImageFix"/>
<feBlend mode="normal" in="SourceGraphic" in2="BackgroundImageFix" result="shape"/>
<feTurbulence type="fractalNoise" baseFrequency="2 2" stitchTiles="stitch" numOctaves="3" result="noise" seed="7463" />
<feColorMatrix in="noise" type="luminanceToAlpha" result="alphaNoise" />
<feComponentTransfer in="alphaNoise" result="coloredNoise1">
<feFuncA type="discrete" tableValues="1 1 1 1 1 1 1 1 1 1 1 1 1 1 1 1 1 1 1 1 1 1 1 1 1 1 1 1 1 1 1 1 1 1 1 1 1 1 1 1 1 1 1 1 1 1 1 1 1 1 1 0 0 0 0 0 0 0 0 0 0 0 0 0 0 0 0 0 0 0 0 0 0 0 0 0 0 0 0 0 0 0 0 0 0 0 0 0 0 0 0 0 0 0 0 0 0 0 0 0 "/>
</feComponentTransfer>
<feComposite operator="in" in2="shape" in="coloredNoise1" result="noise1Clipped" />
<feFlood flood-color="rgba(0, 0, 0, 0.25)" result="color1Flood" />
<feComposite operator="in" in2="noise1Clipped" in="color1Flood" result="color1" />
<feMerge result="effect1_noise_683_1810">
<feMergeNode in="shape" />
<feMergeNode in="color1" />
</feMerge>
</filter>
</defs>
</svg>
