<svg width="671" height="335" viewBox="0 0 671 335" fill="none" xmlns="http://www.w3.org/2000/svg">
<g filter="url(#filter0_n_680_443)">
<rect x="64.5" y="75.5" width="542" height="184" rx="89.5" fill="#443182" stroke="#20095E" stroke-width="21"/>
<path d="M179.574 191V146.2H199.606C206.134 146.2 211.147 147.693 214.646 150.68C218.187 153.624 219.958 157.656 219.958 162.776C219.958 166.147 219.147 169.069 217.526 171.544C215.904 173.976 213.6 175.853 210.614 177.176C207.67 178.456 204.15 179.096 200.054 179.096H186.614L192.246 173.784V191H179.574ZM207.286 191L196.15 174.68H209.654L220.854 191H207.286ZM192.246 175.128L186.614 169.304H199.286C201.931 169.304 203.894 168.728 205.174 167.576C206.496 166.424 207.158 164.824 207.158 162.776C207.158 160.685 206.496 159.064 205.174 157.912C203.894 156.76 201.931 156.184 199.286 156.184H186.614L192.246 150.36V175.128ZM226.949 191V146.2H262.085V155.992H239.493V181.208H262.917V191H226.949ZM238.597 173.016V163.544H259.397V173.016H238.597ZM279.741 191.896C276.455 191.896 273.469 191.341 270.781 190.232C268.135 189.08 265.938 187.437 264.189 185.304L271.101 177.112C272.295 178.648 273.533 179.821 274.813 180.632C276.093 181.4 277.437 181.784 278.845 181.784C282.599 181.784 284.477 179.608 284.477 175.256V155.992H268.989V146.2H297.021V174.488C297.021 180.333 295.549 184.707 292.605 187.608C289.661 190.467 285.373 191.896 279.741 191.896ZM328.166 191.896C324.582 191.896 321.275 191.32 318.246 190.168C315.216 189.016 312.571 187.395 310.31 185.304C308.091 183.171 306.363 180.696 305.126 177.88C303.888 175.064 303.27 171.971 303.27 168.6C303.27 165.229 303.888 162.136 305.126 159.32C306.363 156.504 308.091 154.051 310.31 151.96C312.571 149.827 315.216 148.184 318.246 147.032C321.275 145.88 324.582 145.304 328.166 145.304C331.792 145.304 335.099 145.88 338.086 147.032C341.115 148.184 343.739 149.827 345.958 151.96C348.176 154.051 349.904 156.504 351.142 159.32C352.422 162.136 353.062 165.229 353.062 168.6C353.062 171.971 352.422 175.085 351.142 177.944C349.904 180.76 348.176 183.213 345.958 185.304C343.739 187.395 341.115 189.016 338.086 190.168C335.099 191.32 331.792 191.896 328.166 191.896ZM328.166 181.4C329.872 181.4 331.451 181.101 332.902 180.504C334.395 179.907 335.675 179.053 336.742 177.944C337.851 176.792 338.704 175.427 339.302 173.848C339.942 172.269 340.262 170.52 340.262 168.6C340.262 166.637 339.942 164.888 339.302 163.352C338.704 161.773 337.851 160.429 336.742 159.32C335.675 158.168 334.395 157.293 332.902 156.696C331.451 156.099 329.872 155.8 328.166 155.8C326.459 155.8 324.859 156.099 323.366 156.696C321.915 157.293 320.635 158.168 319.526 159.32C318.459 160.429 317.606 161.773 316.966 163.352C316.368 164.888 316.07 166.637 316.07 168.6C316.07 170.52 316.368 172.269 316.966 173.848C317.606 175.427 318.459 176.792 319.526 177.944C320.635 179.053 321.915 179.907 323.366 180.504C324.859 181.101 326.459 181.4 328.166 181.4ZM380.371 191.896C373.757 191.896 368.595 190.083 364.883 186.456C361.171 182.829 359.315 177.688 359.315 171.032V146.2H371.987V170.648C371.987 174.488 372.733 177.24 374.227 178.904C375.763 180.568 377.853 181.4 380.499 181.4C383.144 181.4 385.213 180.568 386.707 178.904C388.2 177.24 388.947 174.488 388.947 170.648V146.2H401.427V171.032C401.427 177.688 399.571 182.829 395.859 186.456C392.147 190.083 386.984 191.896 380.371 191.896ZM410.011 191V146.2H445.147V155.992H422.555V181.208H445.979V191H410.011ZM421.659 173.016V163.544H442.459V173.016H421.659ZM453.011 191V146.2H473.043C479.571 146.2 484.585 147.693 488.083 150.68C491.625 153.624 493.395 157.656 493.395 162.776C493.395 166.147 492.585 169.069 490.963 171.544C489.342 173.976 487.038 175.853 484.051 177.176C481.107 178.456 477.587 179.096 473.491 179.096H460.051L465.683 173.784V191H453.011ZM480.723 191L469.587 174.68H483.091L494.291 191H480.723ZM465.683 175.128L460.051 169.304H472.723C475.369 169.304 477.331 168.728 478.611 167.576C479.934 166.424 480.595 164.824 480.595 162.776C480.595 160.685 479.934 159.064 478.611 157.912C477.331 156.76 475.369 156.184 472.723 156.184H460.051L465.683 150.36V175.128Z" fill="white"/>
</g>
<defs>
<filter id="filter0_n_680_443" x="0" y="0" width="671" height="335" filterUnits="userSpaceOnUse" color-interpolation-filters="sRGB">
<feFlood flood-opacity="0" result="BackgroundImageFix"/>
<feBlend mode="normal" in="SourceGraphic" in2="BackgroundImageFix" result="shape"/>
<feTurbulence type="fractalNoise" baseFrequency="2 2" stitchTiles="stitch" numOctaves="3" result="noise" seed="7463" />
<feColorMatrix in="noise" type="luminanceToAlpha" result="alphaNoise" />
<feComponentTransfer in="alphaNoise" result="coloredNoise1">
<feFuncA type="discrete" tableValues="1 1 1 1 1 1 1 1 1 1 1 1 1 1 1 1 1 1 1 1 1 1 1 1 1 1 1 1 1 1 1 1 1 1 1 1 1 1 1 1 1 1 1 1 1 1 1 1 1 1 1 0 0 0 0 0 0 0 0 0 0 0 0 0 0 0 0 0 0 0 0 0 0 0 0 0 0 0 0 0 0 0 0 0 0 0 0 0 0 0 0 0 0 0 0 0 0 0 0 0 "/>
</feComponentTransfer>
<feComposite operator="in" in2="shape" in="coloredNoise1" result="noise1Clipped" />
<feFlood flood-color="rgba(0, 0, 0, 0.25)" result="color1Flood" />
<feComposite operator="in" in2="noise1Clipped" in="color1Flood" result="color1" />
<feMerge result="effect1_noise_680_443">
<feMergeNode in="shape" />
<feMergeNode in="color1" />
</feMerge>
</filter>
</defs>
</svg>
