<svg width="671" height="335" viewBox="0 0 671 335" fill="none" xmlns="http://www.w3.org/2000/svg">
<g filter="url(#filter0_n_674_3308)">
<rect x="134.5" y="79.5" width="402" height="176" rx="88" fill="#840000" stroke="#431D1D" stroke-width="21"/>
<path d="M238.255 191.896C234.586 191.896 231.045 191.448 227.631 190.552C224.261 189.613 221.509 188.419 219.375 186.968L223.535 177.624C225.541 178.904 227.845 179.971 230.447 180.824C233.093 181.635 235.717 182.04 238.319 182.04C240.069 182.04 241.477 181.891 242.543 181.592C243.61 181.251 244.378 180.824 244.847 180.312C245.359 179.757 245.615 179.117 245.615 178.392C245.615 177.368 245.146 176.557 244.207 175.96C243.269 175.363 242.053 174.872 240.559 174.488C239.066 174.104 237.402 173.72 235.567 173.336C233.775 172.952 231.962 172.461 230.127 171.864C228.335 171.267 226.693 170.499 225.199 169.56C223.706 168.579 222.49 167.32 221.551 165.784C220.613 164.205 220.143 162.221 220.143 159.832C220.143 157.144 220.869 154.712 222.319 152.536C223.813 150.36 226.031 148.611 228.975 147.288C231.919 145.965 235.589 145.304 239.983 145.304C242.927 145.304 245.807 145.645 248.623 146.328C251.482 146.968 254.021 147.928 256.239 149.208L252.335 158.616C250.202 157.464 248.09 156.611 245.999 156.056C243.909 155.459 241.882 155.16 239.919 155.16C238.17 155.16 236.762 155.352 235.695 155.736C234.629 156.077 233.861 156.547 233.391 157.144C232.922 157.741 232.687 158.424 232.687 159.192C232.687 160.173 233.135 160.963 234.031 161.56C234.97 162.115 236.186 162.584 237.679 162.968C239.215 163.309 240.879 163.672 242.671 164.056C244.506 164.44 246.319 164.931 248.111 165.528C249.946 166.083 251.61 166.851 253.103 167.832C254.597 168.771 255.791 170.029 256.687 171.608C257.626 173.144 258.095 175.085 258.095 177.432C258.095 180.035 257.349 182.445 255.855 184.664C254.405 186.84 252.207 188.589 249.263 189.912C246.362 191.235 242.693 191.896 238.255 191.896ZM272.86 191V156.248H259.1V146.2H299.228V156.248H285.532V191H272.86ZM296.323 191L316.099 146.2H328.579L348.419 191H335.235L319.747 152.408H324.739L309.251 191H296.323ZM307.139 182.296L310.403 172.952H332.291L335.555 182.296H307.139ZM352.011 191V146.2H362.443L387.147 176.024H382.219V146.2H394.635V191H384.203L359.499 161.176H364.427V191H352.011ZM403.574 191V146.2H424.758C429.707 146.2 434.059 147.117 437.814 148.952C441.568 150.787 444.491 153.368 446.582 156.696C448.715 160.024 449.782 163.992 449.782 168.6C449.782 173.165 448.715 177.133 446.582 180.504C444.491 183.832 441.568 186.413 437.814 188.248C434.059 190.083 429.707 191 424.758 191H403.574ZM416.246 180.888H424.246C426.806 180.888 429.024 180.419 430.902 179.48C432.822 178.499 434.315 177.091 435.382 175.256C436.448 173.379 436.982 171.16 436.982 168.6C436.982 165.997 436.448 163.779 435.382 161.944C434.315 160.109 432.822 158.723 430.902 157.784C429.024 156.803 426.806 156.312 424.246 156.312H416.246V180.888Z" fill="white"/>
</g>
<defs>
<filter id="filter0_n_674_3308" x="0" y="0" width="671" height="335" filterUnits="userSpaceOnUse" color-interpolation-filters="sRGB">
<feFlood flood-opacity="0" result="BackgroundImageFix"/>
<feBlend mode="normal" in="SourceGraphic" in2="BackgroundImageFix" result="shape"/>
<feTurbulence type="fractalNoise" baseFrequency="2 2" stitchTiles="stitch" numOctaves="3" result="noise" seed="7463" />
<feColorMatrix in="noise" type="luminanceToAlpha" result="alphaNoise" />
<feComponentTransfer in="alphaNoise" result="coloredNoise1">
<feFuncA type="discrete" tableValues="1 1 1 1 1 1 1 1 1 1 1 1 1 1 1 1 1 1 1 1 1 1 1 1 1 1 1 1 1 1 1 1 1 1 1 1 1 1 1 1 1 1 1 1 1 1 1 1 1 1 1 0 0 0 0 0 0 0 0 0 0 0 0 0 0 0 0 0 0 0 0 0 0 0 0 0 0 0 0 0 0 0 0 0 0 0 0 0 0 0 0 0 0 0 0 0 0 0 0 0 "/>
</feComponentTransfer>
<feComposite operator="in" in2="shape" in="coloredNoise1" result="noise1Clipped" />
<feFlood flood-color="rgba(0, 0, 0, 0.25)" result="color1Flood" />
<feComposite operator="in" in2="noise1Clipped" in="color1Flood" result="color1" />
<feMerge result="effect1_noise_674_3308">
<feMergeNode in="shape" />
<feMergeNode in="color1" />
</feMerge>
</filter>
</defs>
</svg>
